<svg width="2340" height="540" version="1.1" xmlns="http://www.w3.org/2000/svg" desc="Created with imagetracer.js version 1.2.6" ><path fill="rgb(77,78,22)" stroke="rgb(77,78,22)" stroke-width="1" opacity="1" d="M 532.5 3 L 533 39.5 L 532 39.5 L 532.5 3 Z " /><path fill="rgb(77,78,22)" stroke="rgb(77,78,22)" stroke-width="1" opacity="1" d="M 579.5 3 L 580 39.5 L 579 39.5 L 579.5 3 Z " /><path fill="rgb(77,78,22)" stroke="rgb(77,78,22)" stroke-width="1" opacity="1" d="M 0.5 15 L 49 15.5 L 0.5 16 L 0.5 15 Z " /><path fill="rgb(77,78,22)" stroke="rgb(77,78,22)" stroke-width="1" opacity="1" d="M 193 15 L 239.5 15 L 241 16.5 L 240.5 256 L 240 16 L 194.5 16 L 194 16.5 L 194 208.5 L 193 208.5 L 193 15 Z " /><path fill="rgb(77,78,22)" stroke="rgb(77,78,22)" stroke-width="1" opacity="1" d="M 291.5 65 L 292 255.5 L 291 255.5 L 291.5 65 Z " /><path fill="rgb(77,78,22)" stroke="rgb(77,78,22)" stroke-width="1" opacity="1" d="M 1213.5 65 L 1214 158.5 L 1213 158.5 L 1213.5 65 Z " /><path fill="rgb(77,78,22)" stroke="rgb(77,78,22)" stroke-width="1" opacity="1" d="M 533.5 67 L 578.5 67 L 580 68.5 L 579.5 256 L 579 68 L 533.5 68 L 533 68.5 L 533 255.5 L 532 255.5 L 532 68.5 L 533.5 67 Z " /><path fill="rgb(77,78,22)" stroke="rgb(77,78,22)" stroke-width="1" opacity="1" d="M 435.5 112 L 436 255.5 L 435 255.5 L 435.5 112 Z " /><path fill="rgb(77,78,22)" stroke="rgb(77,78,22)" stroke-width="1" opacity="1" d="M 1164.5 112 L 1165 158.5 L 1164 158.5 L 1164.5 112 Z " /><path fill="rgb(77,78,22)" stroke="rgb(77,78,22)" stroke-width="1" opacity="1" d="M 822.5 140 L 966 140.5 L 822.5 141 L 822.5 140 Z " /><path fill="rgb(77,78,22)" stroke="rgb(77,78,22)" stroke-width="1" opacity="1" d="M 871.5 179 L 966 179.5 L 871.5 180 L 871.5 179 Z " /><path fill="rgb(77,78,22)" stroke="rgb(77,78,22)" stroke-width="1" opacity="1" d="M 822.5 255 L 1014 255.5 L 822.5 256 L 822.5 255 Z " /><path fill="rgb(77,78,22)" stroke="rgb(77,78,22)" stroke-width="1" opacity="1" d="M 1380.5 256 L 1368.5 269 L 1380.5 256 Z " /><path fill="rgb(77,78,22)" stroke="rgb(77,78,22)" stroke-width="1" opacity="1" d="M 1447.5 256 L 1414.5 290 L 1447.5 256 Z " /><path fill="rgb(77,78,22)" stroke="rgb(77,78,22)" stroke-width="1" opacity="1" d="M 1353.5 282 L 1341.5 295 L 1353.5 282 Z " /><path fill="rgb(77,78,22)" stroke="rgb(77,78,22)" stroke-width="1" opacity="1" d="M 1689.5 287 L 1690 323.5 L 1689 323.5 L 1689.5 287 Z " /><path fill="rgb(77,78,22)" stroke="rgb(77,78,22)" stroke-width="1" opacity="1" d="M 0.5 299 L 237.5 299 L 239 300.5 L 239 346.5 L 238.5 347 L 48.5 347 L 48.5 346 L 237.5 346 L 238 345.5 L 238 300 L 0.5 300 L 0.5 299 Z " /><path fill="rgb(77,78,22)" stroke="rgb(77,78,22)" stroke-width="1" opacity="1" d="M 1369.5 333 L 1368.5 335 L 1369.5 333 Z " /><path fill="rgb(77,78,22)" stroke="rgb(77,78,22)" stroke-width="1" opacity="1" d="M 1448.5 348 L 1449 538.5 L 1447.5 540 L 1256.5 540 L 1256.5 539 L 1448 539 L 1448.5 348 Z " /><path fill="rgb(77,78,22)" stroke="rgb(77,78,22)" stroke-width="1" opacity="1" d="M 291.5 349 L 292 539.5 L 291 539.5 L 291.5 349 Z " /><path fill="rgb(77,78,22)" stroke="rgb(77,78,22)" stroke-width="1" opacity="1" d="M 484.5 349 L 485 539.5 L 484 539.5 L 484.5 349 Z " /><path fill="rgb(77,78,22)" stroke="rgb(77,78,22)" stroke-width="1" opacity="1" d="M 581.5 349 L 582 492.5 L 581 492.5 L 581.5 349 Z " /><path fill="rgb(77,78,22)" stroke="rgb(77,78,22)" stroke-width="1" opacity="1" d="M 725.5 349 L 726 539.5 L 725 539.5 L 725.5 349 Z " /><path fill="rgb(77,78,22)" stroke="rgb(77,78,22)" stroke-width="1" opacity="1" d="M 1640.5 349 L 1641 395.5 L 1640 395.5 L 1640.5 349 Z " /><path fill="rgb(77,78,22)" stroke="rgb(77,78,22)" stroke-width="1" opacity="1" d="M 1690.5 351 L 1737 351.5 L 1690 352 L 1689.5 540 L 1689 352.5 L 1690.5 351 Z " /><path fill="rgb(77,78,22)" stroke="rgb(77,78,22)" stroke-width="1" opacity="1" d="M 1399.5 393 L 1400 425 L 1256 424.5 L 1399 424 L 1399.5 393 Z " /><path fill="rgb(77,78,22)" stroke="rgb(77,78,22)" stroke-width="1" opacity="1" d="M 238.5 396 L 239 442.5 L 238 442.5 L 238.5 396 Z " /><path fill="rgb(77,78,22)" stroke="rgb(77,78,22)" stroke-width="1" opacity="1" d="M 340.5 396 L 341 491.5 L 340 491.5 L 340.5 396 Z " /><path fill="rgb(77,78,22)" stroke="rgb(77,78,22)" stroke-width="1" opacity="1" d="M 435.5 396 L 436 492.5 L 435 492.5 L 435.5 396 Z " /><path fill="rgb(77,78,22)" stroke="rgb(77,78,22)" stroke-width="1" opacity="1" d="M 1305.5 463 L 1400 463 L 1400 496.5 L 1399 496.5 L 1399 464 L 1305 464 L 1304.5 497 L 1304 464.5 L 1305.5 463 Z " /><path fill="rgb(77,78,22)" stroke="rgb(77,78,22)" stroke-width="1" opacity="1" d="M 1640.5 493 L 1641 539.5 L 1640 539.5 L 1640.5 493 Z " /><path fill="rgb(0,0,0)" stroke="rgb(0,0,0)" stroke-width="1" opacity="1" d="M 629 2 L 676 2 L 676 65 L 773 65 L 773 112 L 676 112 L 676 209 L 773 209 L 773 256 L 629 256 L 629 2 Z " /><path fill="rgb(0,0,0)" stroke="rgb(0,0,0)" stroke-width="1" opacity="1" d="M 533 3 L 579 3 L 579 40 L 533 40 L 533 3 Z " /><path fill="rgb(0,0,0)" stroke="rgb(0,0,0)" stroke-width="1" opacity="1" d="M 0 16 L 48.5 16 L 49 16.5 L 49 209 L 194 209 L 194 16.5 L 194.5 16 L 240 16 L 240 256 L 0 256 L 0 16 Z " /><path fill="rgb(0,0,0)" stroke="rgb(0,0,0)" stroke-width="1" opacity="1" d="M 822 64 L 1013.5 64 L 1015 65.5 L 1015 255 L 822 255 L 822 141 L 965.5 141 L 966 140.5 L 966 109 L 822.5 109 L 822 108.5 L 822 64 Z M 871 179 L 871 213 L 966 213 L 966 179 L 871 179 Z " /><path fill="rgb(0,0,0)" stroke="rgb(0,0,0)" stroke-width="1" opacity="1" d="M 292 65 L 483 65 L 483 256 L 436.5 256 L 436 255.5 L 436 112 L 339 112 L 339 255.5 L 338.5 256 L 292 256 L 292 65 Z " /><path fill="rgb(0,0,0)" stroke="rgb(0,0,0)" stroke-width="1" opacity="1" d="M 1063 65 L 1213 65 L 1213 159 L 1165 159 L 1165 112 L 1112 112 L 1112 256 L 1063 256 L 1063 65 Z " /><path fill="rgb(0,0,0)" stroke="rgb(0,0,0)" stroke-width="1" opacity="1" d="M 1257 65 L 1303.5 65 L 1304 65.5 L 1304 209 L 1401 209 L 1401 65.5 L 1401.5 65 L 1448 65 L 1448 255.5 L 1370.5 333 L 1367.5 335 L 1331 335 L 1331 304.5 L 1340.5 295 L 1381 256.5 L 1257 256 L 1257 65 Z " /><path fill="rgb(0,0,0)" stroke="rgb(0,0,0)" stroke-width="1" opacity="1" d="M 533 68 L 578.5 68 L 579 68.5 L 579 256 L 533.5 256 L 533 255.5 L 533 68 Z " /><path fill="rgb(0,0,0)" stroke="rgb(0,0,0)" stroke-width="1" opacity="1" d="M 1159 285 L 1207.5 285 L 1208 285.5 L 1208 540 L 1015 540 L 1015 349 L 1159 349 L 1159 285 Z M 1062 396 L 1062 493 L 1159 493 L 1159 396 L 1062 396 Z " /><path fill="rgb(0,0,0)" stroke="rgb(0,0,0)" stroke-width="1" opacity="1" d="M 1497 286 L 1544 286 L 1544 349 L 1640 349 L 1640 396 L 1544 396 L 1544 493 L 1640 493 L 1640 540 L 1497 540 L 1497 286 Z " /><path fill="rgb(0,0,0)" stroke="rgb(0,0,0)" stroke-width="1" opacity="1" d="M 1690 287 L 1737 287 L 1737 324 L 1690 324 L 1690 287 Z " /><path fill="rgb(0,0,0)" stroke="rgb(0,0,0)" stroke-width="1" opacity="1" d="M 0 300 L 237.5 300 L 238 300.5 L 238 346 L 48.5 346 L 47 347.5 L 47 396 L 237.5 396 L 238 396.5 L 238 443 L 47 443 L 47 540 L 0 540 L 0 300 Z " /><path fill="rgb(0,0,0)" stroke="rgb(0,0,0)" stroke-width="1" opacity="1" d="M 1256 348 L 1448 348 L 1448 539 L 1256 539 L 1256 425 L 1399.5 425 L 1400 424.5 L 1400 393 L 1256.5 393 L 1256 392.5 L 1256 348 Z M 1306 463 L 1304 465 L 1304 497 L 1400 497 L 1400 463 L 1306 463 Z " /><path fill="rgb(0,0,0)" stroke="rgb(0,0,0)" stroke-width="1" opacity="1" d="M 292 349 L 484 349 L 484 540 L 292 540 L 292 349 Z M 340 396 L 340 492 L 342 493 L 436 493 L 436 396 L 340 396 Z " /><path fill="rgb(0,0,0)" stroke="rgb(0,0,0)" stroke-width="1" opacity="1" d="M 534 349 L 580.5 349 L 581 349.5 L 581 493 L 678 493 L 678 349.5 L 678.5 349 L 725 349 L 725 540 L 534 540 L 534 349 Z " /><path fill="rgb(0,0,0)" stroke="rgb(0,0,0)" stroke-width="1" opacity="1" d="M 774 349 L 965 349 L 965 540 L 918.5 540 L 918 539.5 L 918 396 L 821 396 L 821 539.5 L 820.5 540 L 774 540 L 774 349 Z " /><path fill="rgb(0,0,0)" stroke="rgb(0,0,0)" stroke-width="1" opacity="1" d="M 1786 349 L 1979 349 L 1979 540 L 1786 540 L 1786 349 Z M 1835 396 L 1835 493 L 1930 493 L 1930 396 L 1835 396 Z " /><path fill="rgb(0,0,0)" stroke="rgb(0,0,0)" stroke-width="1" opacity="1" d="M 2029 349 L 2220 349 L 2220 540 L 2173.5 540 L 2173 539.5 L 2173 396 L 2076 396 L 2076 539.5 L 2075.5 540 L 2029 540 L 2029 349 Z " /><path fill="rgb(0,0,0)" stroke="rgb(0,0,0)" stroke-width="1" opacity="1" d="M 1690 352 L 1736.5 352 L 1737 352.5 L 1737 540 L 1690.5 540 L 1690 539.5 L 1690 352 Z " /><path fill="rgb(0,0,0)" stroke="rgb(0,0,0)" stroke-width="1" opacity="0" d="M 1568 0 L 2340 0 L 2340 276 L 1568 276 L 1568 0 Z " /><path fill="rgb(174,177,54)" stroke="rgb(174,177,54)" stroke-width="1" opacity="1" d="M 676.5 2 L 677 64 L 773 64.5 L 677.5 65 L 676 63.5 L 676.5 2 Z " /><path fill="rgb(174,177,54)" stroke="rgb(174,177,54)" stroke-width="1" opacity="1" d="M 49.5 16 L 50 208 L 193 208.5 L 50.5 209 L 49 207.5 L 49.5 16 Z " /><path fill="rgb(174,177,54)" stroke="rgb(174,177,54)" stroke-width="1" opacity="1" d="M 532.5 40 L 580 40.5 L 532.5 41 L 532.5 40 Z " /><path fill="rgb(174,177,54)" stroke="rgb(174,177,54)" stroke-width="1" opacity="1" d="M 291.5 64 L 483 64.5 L 291.5 65 L 291.5 64 Z " /><path fill="rgb(174,177,54)" stroke="rgb(174,177,54)" stroke-width="1" opacity="1" d="M 821.5 64 L 822 109 L 964.5 109 L 966 110.5 L 965.5 140 L 965 110 L 822.5 110 L 821 108.5 L 821.5 64 Z " /><path fill="rgb(174,177,54)" stroke="rgb(174,177,54)" stroke-width="1" opacity="1" d="M 1063.5 64 L 1214 64.5 L 1063.5 65 L 1063.5 64 Z " /><path fill="rgb(174,177,54)" stroke="rgb(174,177,54)" stroke-width="1" opacity="1" d="M 1257.5 64 L 1303.5 64 L 1305 65.5 L 1305 208 L 1400.5 208 L 1400.5 209 L 1305.5 209 L 1304 207.5 L 1304 65.5 L 1303.5 65 L 1257.5 65 L 1257.5 64 Z " /><path fill="rgb(174,177,54)" stroke="rgb(174,177,54)" stroke-width="1" opacity="1" d="M 1401.5 64 L 1447.5 64 L 1449 65.5 L 1448.5 256 L 1448 65 L 1401.5 65 L 1401.5 64 Z " /><path fill="rgb(174,177,54)" stroke="rgb(174,177,54)" stroke-width="1" opacity="1" d="M 676.5 112 L 677 208 L 773 208.5 L 677.5 209 L 676 207.5 L 676.5 112 Z " /><path fill="rgb(174,177,54)" stroke="rgb(174,177,54)" stroke-width="1" opacity="1" d="M 821.5 140 L 822 255.5 L 821 255.5 L 821.5 140 Z " /><path fill="rgb(174,177,54)" stroke="rgb(174,177,54)" stroke-width="1" opacity="1" d="M 1164.5 159 L 1214 159.5 L 1164.5 160 L 1164.5 159 Z " /><path fill="rgb(174,177,54)" stroke="rgb(174,177,54)" stroke-width="1" opacity="1" d="M 965.5 180 L 966 211.5 L 964.5 213 L 871.5 213 L 871.5 212 L 965 212 L 965.5 180 Z " /><path fill="rgb(174,177,54)" stroke="rgb(174,177,54)" stroke-width="1" opacity="1" d="M 1360.5 275 L 1354.5 282 L 1360.5 275 Z " /><path fill="rgb(174,177,54)" stroke="rgb(174,177,54)" stroke-width="1" opacity="1" d="M 1159.5 284 L 1208 284.5 L 1159 285 L 1159 347.5 L 1157.5 349 L 1015 349 L 1015 539.5 L 1014 539.5 L 1014 349.5 L 1015.5 348 L 1158 348 L 1158 285.5 L 1159.5 284 Z " /><path fill="rgb(174,177,54)" stroke="rgb(174,177,54)" stroke-width="1" opacity="1" d="M 1496.5 286 L 1497 539.5 L 1496 539.5 L 1496.5 286 Z " /><path fill="rgb(174,177,54)" stroke="rgb(174,177,54)" stroke-width="1" opacity="1" d="M 1413.5 290 L 1392.5 312 L 1413.5 290 Z " /><path fill="rgb(174,177,54)" stroke="rgb(174,177,54)" stroke-width="1" opacity="1" d="M 1333.5 301 L 1331.5 304 L 1333.5 301 Z " /><path fill="rgb(174,177,54)" stroke="rgb(174,177,54)" stroke-width="1" opacity="1" d="M 1690.5 324 L 1737 324.5 L 1690.5 325 L 1690.5 324 Z " /><path fill="rgb(174,177,54)" stroke="rgb(174,177,54)" stroke-width="1" opacity="1" d="M 47.5 347 L 48 395.5 L 47 395.5 L 47.5 347 Z " /><path fill="rgb(174,177,54)" stroke="rgb(174,177,54)" stroke-width="1" opacity="1" d="M 291.5 348 L 485 348.5 L 291.5 349 L 291.5 348 Z " /><path fill="rgb(174,177,54)" stroke="rgb(174,177,54)" stroke-width="1" opacity="1" d="M 534.5 348 L 582 348.5 L 534.5 349 L 534.5 348 Z " /><path fill="rgb(174,177,54)" stroke="rgb(174,177,54)" stroke-width="1" opacity="1" d="M 678.5 348 L 726 348.5 L 678.5 349 L 678.5 348 Z " /><path fill="rgb(174,177,54)" stroke="rgb(174,177,54)" stroke-width="1" opacity="1" d="M 774.5 348 L 964.5 348 L 966 349.5 L 965.5 540 L 965 349 L 774.5 349 L 774.5 348 Z " /><path fill="rgb(174,177,54)" stroke="rgb(174,177,54)" stroke-width="1" opacity="1" d="M 1255.5 348 L 1256 393 L 1399 393.5 L 1256.5 394 L 1255 392.5 L 1255.5 348 Z " /><path fill="rgb(174,177,54)" stroke="rgb(174,177,54)" stroke-width="1" opacity="1" d="M 1544.5 348 L 1641 348.5 L 1544.5 349 L 1544.5 348 Z " /><path fill="rgb(174,177,54)" stroke="rgb(174,177,54)" stroke-width="1" opacity="1" d="M 1786.5 348 L 1978.5 348 L 1980 349.5 L 1979.5 540 L 1979 349 L 1786.5 349 L 1786.5 348 Z " /><path fill="rgb(174,177,54)" stroke="rgb(174,177,54)" stroke-width="1" opacity="1" d="M 2029.5 348 L 2220 348.5 L 2029 349 L 2028.5 540 L 2028 349.5 L 2029.5 348 Z " /><path fill="rgb(174,177,54)" stroke="rgb(174,177,54)" stroke-width="1" opacity="1" d="M 821.5 396 L 822 539.5 L 821 539.5 L 821.5 396 Z " /><path fill="rgb(174,177,54)" stroke="rgb(174,177,54)" stroke-width="1" opacity="1" d="M 1158.5 396 L 1159 491.5 L 1157.5 493 L 1062.5 493 L 1062.5 492 L 1158 492 L 1158.5 396 Z " /><path fill="rgb(174,177,54)" stroke="rgb(174,177,54)" stroke-width="1" opacity="1" d="M 1835.5 396 L 1836 492 L 1930 492.5 L 1836.5 493 L 1835 491.5 L 1835.5 396 Z " /><path fill="rgb(174,177,54)" stroke="rgb(174,177,54)" stroke-width="1" opacity="1" d="M 2172.5 396 L 2173 539.5 L 2172 539.5 L 2172.5 396 Z " /><path fill="rgb(174,177,54)" stroke="rgb(174,177,54)" stroke-width="1" opacity="1" d="M 1255.5 424 L 1256 539.5 L 1255 539.5 L 1255.5 424 Z " /><path fill="rgb(174,177,54)" stroke="rgb(174,177,54)" stroke-width="1" opacity="1" d="M 48.5 443 L 239 443.5 L 48 444 L 47.5 540 L 47 444.5 L 48.5 443 Z " /><path fill="rgb(174,177,54)" stroke="rgb(174,177,54)" stroke-width="1" opacity="1" d="M 341.5 492 L 435 492.5 L 341.5 493 L 341.5 492 Z " /><path fill="rgb(174,177,54)" stroke="rgb(174,177,54)" stroke-width="1" opacity="1" d="M 582.5 492 L 678 492.5 L 582.5 493 L 582.5 492 Z " /><path fill="rgb(174,177,54)" stroke="rgb(174,177,54)" stroke-width="1" opacity="1" d="M 1544.5 492 L 1641 492.5 L 1544.5 493 L 1544.5 492 Z " /><path fill="rgb(174,177,54)" stroke="rgb(174,177,54)" stroke-width="1" opacity="1" d="M 1305.5 496 L 1399 496.5 L 1305.5 497 L 1305.5 496 Z " /><path fill="rgb(252,255,79)" stroke="rgb(252,255,79)" stroke-width="1" opacity="1" d="M 0 0 L 1567.5 0 L 1568 0.5 L 1568 276 L 2340 276 L 2340 540 L 2220 540 L 2220 348 L 2029.5 348 L 2028 349.5 L 2028 540 L 1980.5 540 L 1980 539.5 L 1980 349.5 L 1978.5 348 L 1786 348 L 1786 539.5 L 1785.5 540 L 1737 540 L 1737 351.5 L 1736.5 351 L 1689 351 L 1689 539.5 L 1688.5 540 L 1641 540 L 1641 492 L 1544 492 L 1544 396 L 1641 396 L 1641 348 L 1544 348 L 1544 286 L 1496 286 L 1496 539.5 L 1495.5 540 L 1449 540 L 1449 348 L 1255 348 L 1255 392.5 L 1256.5 394 L 1398.5 394 L 1399 394.5 L 1399 424 L 1255 424 L 1255 540 L 1208 540 L 1208 284.5 L 1207.5 284 L 1159.5 284 L 1158 285.5 L 1158 348 L 1015.5 348 L 1014 349.5 L 1014 539.5 L 1013.5 540 L 966 540 L 966 349.5 L 964.5 348 L 774 348 L 774 539.5 L 773.5 540 L 726 540 L 726 348.5 L 725.5 348 L 678 348 L 678 492 L 582 492 L 582 348 L 534 348 L 534 539.5 L 533.5 540 L 485 540 L 485 348 L 291 348 L 291 540 L 48 540 L 48 444 L 238.5 444 L 239 443.5 L 239 396 L 48.5 396 L 48 395.5 L 48 347 L 238.5 347 L 239 346.5 L 239 299 L 0.5 299 L 0 298.5 L 0 256 L 241 256 L 241 15 L 193.5 15 L 193 15.5 L 193 208 L 50 208 L 50 16.5 L 48.5 15 L 0.5 15 L 0 14.5 L 0 0 Z M 629 2 L 629 256 L 773 256 L 773 208 L 677 208 L 677 112 L 773 112 L 773 64 L 677 64 L 677 2 L 629 2 Z M 532 3 L 532 41 L 580 41 L 580 3 L 532 3 Z M 291 64 L 291 256 L 339 256 L 339 112 L 435 112 L 435 256 L 483 256 L 483 64 L 291 64 Z M 821 64 L 821 109 L 823 110 L 965 110 L 965 140 L 965 140 L 821 140 L 821 256 L 1015 256 L 1015 64 L 821 64 Z M 1063 64 L 1063 256 L 1112 256 L 1112 112 L 1164 112 L 1164 160 L 1214 160 L 1214 64 L 1063 64 Z M 1257 64 L 1257 256 L 1380 257 L 1334 301 L 1331 304 L 1331 335 L 1369 335 L 1449 256 L 1449 66 L 1448 64 L 1402 64 L 1401 65 L 1401 208 L 1305 208 L 1305 66 L 1304 64 L 1257 64 Z M 532 67 L 532 256 L 533 256 L 580 256 L 580 68 L 580 67 L 532 67 Z M 1689 287 L 1689 324 L 1691 325 L 1737 325 L 1737 287 L 1689 287 Z " /><path fill="rgb(252,255,79)" stroke="rgb(252,255,79)" stroke-width="1" opacity="1" d="M 871 180 L 965 180 L 965 212 L 871 212 L 871 180 Z " /><path fill="rgb(252,255,79)" stroke="rgb(252,255,79)" stroke-width="1" opacity="1" d="M 341 396 L 435 396 L 435 492 L 341 492 L 341 396 Z " /><path fill="rgb(252,255,79)" stroke="rgb(252,255,79)" stroke-width="1" opacity="1" d="M 822 396 L 918 396 L 918 540 L 822 540 L 822 396 Z " /><path fill="rgb(252,255,79)" stroke="rgb(252,255,79)" stroke-width="1" opacity="1" d="M 1062 396 L 1158 396 L 1158 492 L 1062 492 L 1062 396 Z " /><path fill="rgb(252,255,79)" stroke="rgb(252,255,79)" stroke-width="1" opacity="1" d="M 1836 396 L 1930 396 L 1930 492 L 1836 492 L 1836 396 Z " /><path fill="rgb(252,255,79)" stroke="rgb(252,255,79)" stroke-width="1" opacity="1" d="M 2076 396 L 2172 396 L 2172 540 L 2076 540 L 2076 396 Z " /><path fill="rgb(252,255,79)" stroke="rgb(252,255,79)" stroke-width="1" opacity="1" d="M 1305 464 L 1399 464 L 1399 496 L 1305 496 L 1305 464 Z " /></svg>