<svg width="940" height="217" version="1.1" xmlns="http://www.w3.org/2000/svg" desc="Created with imagetracer.js version 1.2.6" ><path fill="rgb(42,43,10)" stroke="rgb(42,43,10)" stroke-width="1" opacity="1" d="M 214.5 1 L 233 1 L 233 15.5 L 232 15.5 L 232 2 L 214.5 2 L 214.5 1 Z " /><path fill="rgb(42,43,10)" stroke="rgb(42,43,10)" stroke-width="1" opacity="1" d="M 271.5 1 L 272 25.5 L 271 25.5 L 271.5 1 Z " /><path fill="rgb(42,43,10)" stroke="rgb(42,43,10)" stroke-width="1" opacity="1" d="M 0.5 6 L 19.5 6 L 20 6.5 L 20 83.5 L 19 83.5 L 19 7.5 L 18.5 7 L 0.5 7 L 0.5 6 Z " /><path fill="rgb(42,43,10)" stroke="rgb(42,43,10)" stroke-width="1" opacity="1" d="M 78.5 6 L 96.5 6 L 97 6.5 L 97 103 L 0 102.5 L 96 102 L 96 7.5 L 95.5 7 L 78.5 7 L 78.5 6 Z " /><path fill="rgb(42,43,10)" stroke="rgb(42,43,10)" stroke-width="1" opacity="1" d="M 117.5 26 L 118 102 L 136 102.5 L 117 103 L 117.5 26 Z " /><path fill="rgb(42,43,10)" stroke="rgb(42,43,10)" stroke-width="1" opacity="1" d="M 407.5 26 L 408 101.5 L 406.5 103 L 330.5 103 L 330.5 102 L 407 102 L 407.5 26 Z " /><path fill="rgb(42,43,10)" stroke="rgb(42,43,10)" stroke-width="1" opacity="1" d="M 487.5 26 L 488 63.5 L 487 63.5 L 487.5 26 Z " /><path fill="rgb(42,43,10)" stroke="rgb(42,43,10)" stroke-width="1" opacity="1" d="M 523.5 26 L 524 83.5 L 523 83.5 L 523.5 26 Z " /><path fill="rgb(42,43,10)" stroke="rgb(42,43,10)" stroke-width="1" opacity="1" d="M 581.5 26 L 582 102.5 L 549.5 135 L 535.5 135 L 535.5 134 L 549.5 134 L 581 102.5 L 581.5 26 Z " /><path fill="rgb(42,43,10)" stroke="rgb(42,43,10)" stroke-width="1" opacity="1" d="M 214.5 27 L 232.5 27 L 233 27.5 L 233 103 L 214 102.5 L 232 102 L 232 28.5 L 231.5 28 L 214.5 28 L 214.5 27 Z " /><path fill="rgb(42,43,10)" stroke="rgb(42,43,10)" stroke-width="1" opacity="1" d="M 330.5 43 L 388 43.5 L 330.5 44 L 330.5 43 Z " /><path fill="rgb(42,43,10)" stroke="rgb(42,43,10)" stroke-width="1" opacity="1" d="M 271.5 45 L 272 83.5 L 271 83.5 L 271.5 45 Z " /><path fill="rgb(42,43,10)" stroke="rgb(42,43,10)" stroke-width="1" opacity="1" d="M 446.5 45 L 447 103 L 427 102.5 L 446 102 L 446.5 45 Z " /><path fill="rgb(42,43,10)" stroke="rgb(42,43,10)" stroke-width="1" opacity="1" d="M 330.5 56 L 388 56.5 L 330.5 57 L 330.5 56 Z " /><path fill="rgb(42,43,10)" stroke="rgb(42,43,10)" stroke-width="1" opacity="1" d="M 349.5 72 L 350 85 L 388 85.5 L 349 86 L 349.5 72 Z " /><path fill="rgb(42,43,10)" stroke="rgb(42,43,10)" stroke-width="1" opacity="1" d="M 175.5 102 L 194 102.5 L 175.5 103 L 175.5 102 Z " /><path fill="rgb(42,43,10)" stroke="rgb(42,43,10)" stroke-width="1" opacity="1" d="M 253.5 102 L 310 102.5 L 253.5 103 L 253.5 102 Z " /><path fill="rgb(42,43,10)" stroke="rgb(42,43,10)" stroke-width="1" opacity="1" d="M 505.5 102 L 553.5 102 L 555 103.5 L 550 107.5 L 553.5 103 L 505.5 103 L 505.5 102 Z " /><path fill="rgb(42,43,10)" stroke="rgb(42,43,10)" stroke-width="1" opacity="1" d="M 466.5 114 L 485 114.5 L 466 115 L 466 139.5 L 464.5 141 L 408 140.5 L 465 140 L 465 115.5 L 466.5 114 Z " /><path fill="rgb(42,43,10)" stroke="rgb(42,43,10)" stroke-width="1" opacity="1" d="M 601.5 115 L 602 216.5 L 601 216.5 L 601.5 115 Z " /><path fill="rgb(42,43,10)" stroke="rgb(42,43,10)" stroke-width="1" opacity="1" d="M 679.5 115 L 698 115 L 698 129.5 L 697 129.5 L 697 116 L 679.5 116 L 679.5 115 Z " /><path fill="rgb(42,43,10)" stroke="rgb(42,43,10)" stroke-width="1" opacity="1" d="M 538.5 118 L 535.5 122 L 538.5 118 Z " /><path fill="rgb(42,43,10)" stroke="rgb(42,43,10)" stroke-width="1" opacity="1" d="M 0.5 120 L 95.5 120 L 96 120.5 L 96 138.5 L 95 138.5 L 95 121.5 L 94.5 121 L 0.5 121 L 0.5 120 Z " /><path fill="rgb(42,43,10)" stroke="rgb(42,43,10)" stroke-width="1" opacity="1" d="M 18.5 140 L 19 158.5 L 18 158.5 L 18.5 140 Z " /><path fill="rgb(42,43,10)" stroke="rgb(42,43,10)" stroke-width="1" opacity="1" d="M 117 140 L 195 140 L 195 216.5 L 194 216.5 L 194 141 L 118 141 L 117.5 217 L 117 140 Z " /><path fill="rgb(42,43,10)" stroke="rgb(42,43,10)" stroke-width="1" opacity="1" d="M 215.5 140 L 233.5 140 L 234 140.5 L 234 197.5 L 233 197.5 L 233 141.5 L 232.5 141 L 215.5 141 L 215.5 140 Z " /><path fill="rgb(42,43,10)" stroke="rgb(42,43,10)" stroke-width="1" opacity="1" d="M 272 140 L 291 140.5 L 273 141 L 272.5 198 L 272 140 Z " /><path fill="rgb(42,43,10)" stroke="rgb(42,43,10)" stroke-width="1" opacity="1" d="M 311.5 140 L 388 140 L 388 216.5 L 387 216.5 L 387 141 L 311.5 141 L 311.5 140 Z " /><path fill="rgb(42,43,10)" stroke="rgb(42,43,10)" stroke-width="1" opacity="1" d="M 504.5 140 L 505 157.5 L 504 157.5 L 504.5 140 Z " /><path fill="rgb(42,43,10)" stroke="rgb(42,43,10)" stroke-width="1" opacity="1" d="M 581.5 140 L 582 217 L 504 217 L 504 171.5 L 505 171.5 L 505 216 L 581 216 L 581.5 140 Z " /><path fill="rgb(42,43,10)" stroke="rgb(42,43,10)" stroke-width="1" opacity="1" d="M 620.5 140 L 659 140.5 L 620.5 141 L 620.5 140 Z " /><path fill="rgb(42,43,10)" stroke="rgb(42,43,10)" stroke-width="1" opacity="1" d="M 718.5 140 L 795 140.5 L 718 141 L 717.5 217 L 717 141.5 L 718.5 140 Z " /><path fill="rgb(42,43,10)" stroke="rgb(42,43,10)" stroke-width="1" opacity="1" d="M 815.5 140 L 892 140 L 892 216.5 L 891 216.5 L 891 141 L 815.5 141 L 815.5 140 Z " /><path fill="rgb(42,43,10)" stroke="rgb(42,43,10)" stroke-width="1" opacity="1" d="M 679.5 141 L 697.5 141 L 698 141.5 L 698 216.5 L 697 216.5 L 697 142.5 L 696.5 142 L 679.5 142 L 679.5 141 Z " /><path fill="rgb(42,43,10)" stroke="rgb(42,43,10)" stroke-width="1" opacity="1" d="M 562.5 158 L 563 170.5 L 562 170.5 L 562.5 158 Z " /><path fill="rgb(42,43,10)" stroke="rgb(42,43,10)" stroke-width="1" opacity="1" d="M 95.5 159 L 96 177.5 L 95 177.5 L 95.5 159 Z " /><path fill="rgb(42,43,10)" stroke="rgb(42,43,10)" stroke-width="1" opacity="1" d="M 136.5 159 L 137 197.5 L 136 197.5 L 136.5 159 Z " /><path fill="rgb(42,43,10)" stroke="rgb(42,43,10)" stroke-width="1" opacity="1" d="M 329.5 159 L 330 216.5 L 329 216.5 L 329.5 159 Z " /><path fill="rgb(42,43,10)" stroke="rgb(42,43,10)" stroke-width="1" opacity="1" d="M 426.5 159 L 427 197.5 L 426 197.5 L 426.5 159 Z " /><path fill="rgb(42,43,10)" stroke="rgb(42,43,10)" stroke-width="1" opacity="1" d="M 465.5 159 L 466 197.5 L 465 197.5 L 465.5 159 Z " /><path fill="rgb(42,43,10)" stroke="rgb(42,43,10)" stroke-width="1" opacity="1" d="M 775.5 159 L 776 197.5 L 775 197.5 L 775.5 159 Z " /><path fill="rgb(42,43,10)" stroke="rgb(42,43,10)" stroke-width="1" opacity="1" d="M 18.5 179 L 19 216.5 L 18 216.5 L 18.5 179 Z " /><path fill="rgb(42,43,10)" stroke="rgb(42,43,10)" stroke-width="1" opacity="1" d="M 562.5 186 L 563 199.5 L 562 199.5 L 562.5 186 Z " /><path fill="rgb(0,0,0)" stroke="rgb(0,0,0)" stroke-width="1" opacity="0" d="M 630 0 L 940 0 L 940 111 L 630 111 L 630 0 Z " /><path fill="rgb(0,0,0)" stroke="rgb(0,0,0)" stroke-width="1" opacity="1" d="M 253 1 L 271 1 L 271 26 L 310 26 L 310 45 L 271 45 L 271 84 L 310 84 L 310 102 L 253 102 L 253 1 Z " /><path fill="rgb(0,0,0)" stroke="rgb(0,0,0)" stroke-width="1" opacity="1" d="M 214 2 L 232 2 L 232 16 L 214 16 L 214 2 Z " /><path fill="rgb(0,0,0)" stroke="rgb(0,0,0)" stroke-width="1" opacity="1" d="M 0 7 L 18.5 7 L 19 7.5 L 19 84 L 78 84 L 78 7.5 L 78.5 7 L 96 7 L 96 102 L 0 102 L 0 7 Z " /><path fill="rgb(0,0,0)" stroke="rgb(0,0,0)" stroke-width="1" opacity="1" d="M 118 26 L 192.5 26 L 194 27.5 L 194 101.5 L 193.5 102 L 175 102 L 175 45 L 136 45 L 136 101.5 L 135.5 102 L 118 102 L 118 26 Z " /><path fill="rgb(0,0,0)" stroke="rgb(0,0,0)" stroke-width="1" opacity="1" d="M 331.5 26 L 407 26 L 407 102 L 330 102 L 330 57 L 387.5 57 L 388 56.5 L 388 43 L 330.5 43 L 330 42.5 L 330 27.5 L 331.5 26 Z M 349 72 L 349 86 L 388 86 L 388 72 L 349 72 Z " /><path fill="rgb(0,0,0)" stroke="rgb(0,0,0)" stroke-width="1" opacity="1" d="M 427 26 L 487 26 L 487 64 L 468 64 L 468 45 L 446 45 L 446 102 L 427 102 L 427 26 Z " /><path fill="rgb(0,0,0)" stroke="rgb(0,0,0)" stroke-width="1" opacity="1" d="M 505 26 L 522.5 26 L 523 26.5 L 523 84 L 563 84 L 563 26.5 L 563.5 26 L 581 26 L 581 102.5 L 549.5 134 L 535 134 L 535 122.5 L 547.5 110 L 549 110 Q 547.9 107.3 550.5 108 L 555 103.5 L 553.5 102 L 505 102 L 505 26 Z " /><path fill="rgb(0,0,0)" stroke="rgb(0,0,0)" stroke-width="1" opacity="1" d="M 214 28 L 231.5 28 L 232 28.5 L 232 102 L 214.5 102 L 214 101.5 L 214 28 Z " /><path fill="rgb(0,0,0)" stroke="rgb(0,0,0)" stroke-width="1" opacity="1" d="M 466 115 L 484.5 115 L 485 115.5 L 485 217 L 408 217 L 408 141 L 464.5 141 L 466 139.5 L 466 115 Z M 426 159 L 426 198 L 466 198 L 466 159 L 426 159 Z " /><path fill="rgb(0,0,0)" stroke="rgb(0,0,0)" stroke-width="1" opacity="1" d="M 602 115 L 620 115 L 620 141 L 659 141 L 659 159 L 620 159 L 620 198 L 659 198 L 659 217 L 602 217 L 602 115 Z " /><path fill="rgb(0,0,0)" stroke="rgb(0,0,0)" stroke-width="1" opacity="1" d="M 679 116 L 697 116 L 697 130 L 679 130 L 679 116 Z " /><path fill="rgb(0,0,0)" stroke="rgb(0,0,0)" stroke-width="1" opacity="1" d="M 0 121 L 94.5 121 L 95 121.5 L 95 139 L 19.5 139 L 18 140.5 L 18 158.5 L 18.5 159 L 95 159 L 95 178 L 19.5 178 L 18 179.5 L 18 217 L 0 217 L 0 121 Z " /><path fill="rgb(0,0,0)" stroke="rgb(0,0,0)" stroke-width="1" opacity="1" d="M 505 140 L 581 140 L 581 216 L 505 216 L 505 171 L 562.5 171 L 563 170.5 L 563 158 L 505.5 158 L 505 157.5 L 505 140 Z M 524 186 L 524 200 L 563 200 L 563 186 L 524 186 Z " /><path fill="rgb(0,0,0)" stroke="rgb(0,0,0)" stroke-width="1" opacity="1" d="M 118 141 L 194 141 L 194 217 L 118 217 L 118 141 Z M 136 159 L 136 198 L 175 198 L 175 159 L 136 159 Z " /><path fill="rgb(0,0,0)" stroke="rgb(0,0,0)" stroke-width="1" opacity="1" d="M 215 141 L 232.5 141 L 233 141.5 L 233 198 L 273 198 L 273 141.5 L 273.5 141 L 291 141 L 291 217 L 215 217 L 215 141 Z " /><path fill="rgb(0,0,0)" stroke="rgb(0,0,0)" stroke-width="1" opacity="1" d="M 311 141 L 387 141 L 387 217 L 369.5 217 L 369 216.5 L 369 159 L 329 159 L 329 216.5 L 328.5 217 L 311 217 L 311 141 Z " /><path fill="rgb(0,0,0)" stroke="rgb(0,0,0)" stroke-width="1" opacity="1" d="M 718 141 L 795 141 L 795 217 L 718 217 L 718 141 Z M 737 159 L 737 198 L 776 198 L 776 159 L 737 159 Z " /><path fill="rgb(0,0,0)" stroke="rgb(0,0,0)" stroke-width="1" opacity="1" d="M 815 141 L 891 141 L 891 217 L 873.5 217 L 873 216.5 L 873 159 L 834 159 L 834 216.5 L 833.5 217 L 815 217 L 815 141 Z " /><path fill="rgb(0,0,0)" stroke="rgb(0,0,0)" stroke-width="1" opacity="1" d="M 679 142 L 696.5 142 L 697 142.5 L 697 217 L 679.5 217 L 679 216.5 L 679 142 Z " /><path fill="rgb(214,218,67)" stroke="rgb(214,218,67)" stroke-width="1" opacity="0.996078431372549" d="M 253.5 0 L 272 0.5 L 253 1 L 252.5 103 L 252 1.5 L 253.5 0 Z " /><path fill="rgb(214,218,67)" stroke="rgb(214,218,67)" stroke-width="1" opacity="0.996078431372549" d="M 213.5 1 L 214 16 L 233 16.5 L 214.5 17 L 213 15.5 L 213.5 1 Z " /><path fill="rgb(214,218,67)" stroke="rgb(214,218,67)" stroke-width="1" opacity="0.996078431372549" d="M 77.5 6 L 78 84 L 20 83.5 L 77 83 L 77.5 6 Z " /><path fill="rgb(214,218,67)" stroke="rgb(214,218,67)" stroke-width="1" opacity="0.996078431372549" d="M 117.5 25 L 194 25.5 L 117.5 26 L 117.5 25 Z " /><path fill="rgb(214,218,67)" stroke="rgb(214,218,67)" stroke-width="1" opacity="0.996078431372549" d="M 272.5 25 L 309.5 25 L 311 26.5 L 310.5 45 L 310 26 L 272.5 26 L 272.5 25 Z " /><path fill="rgb(214,218,67)" stroke="rgb(214,218,67)" stroke-width="1" opacity="0.996078431372549" d="M 330.5 25 L 408 25.5 L 330 26 L 329.5 43 L 329 26.5 L 330.5 25 Z " /><path fill="rgb(214,218,67)" stroke="rgb(214,218,67)" stroke-width="1" opacity="0.996078431372549" d="M 427.5 25 L 487 25.5 L 427.5 26 L 427.5 25 Z " /><path fill="rgb(214,218,67)" stroke="rgb(214,218,67)" stroke-width="1" opacity="0.996078431372549" d="M 505.5 25 L 524 25.5 L 505 26 L 504.5 103 L 504 26.5 L 505.5 25 Z " /><path fill="rgb(214,218,67)" stroke="rgb(214,218,67)" stroke-width="1" opacity="0.996078431372549" d="M 563.5 25 L 582 25.5 L 563 26 L 563 84 L 524.5 84 L 524.5 83 L 562 83 L 562 26.5 L 563.5 25 Z " /><path fill="rgb(214,218,67)" stroke="rgb(214,218,67)" stroke-width="1" opacity="0.996078431372549" d="M 213.5 27 L 214 102.5 L 213 102.5 L 213.5 27 Z " /><path fill="rgb(214,218,67)" stroke="rgb(214,218,67)" stroke-width="1" opacity="0.996078431372549" d="M 387.5 44 L 388 55.5 L 387 55.5 L 387.5 44 Z " /><path fill="rgb(214,218,67)" stroke="rgb(214,218,67)" stroke-width="1" opacity="0.996078431372549" d="M 174.5 45 L 175 102.5 L 174 102.5 L 174.5 45 Z " /><path fill="rgb(214,218,67)" stroke="rgb(214,218,67)" stroke-width="1" opacity="0.996078431372549" d="M 467.5 45 L 468 64 L 487 64.5 L 468.5 65 L 467 63.5 L 467.5 45 Z " /><path fill="rgb(214,218,67)" stroke="rgb(214,218,67)" stroke-width="1" opacity="0.996078431372549" d="M 329.5 57 L 330 101.5 L 329 101.5 L 329.5 57 Z " /><path fill="rgb(214,218,67)" stroke="rgb(214,218,67)" stroke-width="1" opacity="0.996078431372549" d="M 350.5 72 L 387.5 72 L 388 72.5 L 388 84.5 L 387 84.5 L 387 73.5 L 386.5 73 L 350.5 73 L 350.5 72 Z " /><path fill="rgb(214,218,67)" stroke="rgb(214,218,67)" stroke-width="1" opacity="0.996078431372549" d="M 272.5 83 L 309.5 83 L 311 84.5 L 310.5 103 L 310 84 L 272.5 84 L 272.5 83 Z " /><path fill="rgb(214,218,67)" stroke="rgb(214,218,67)" stroke-width="1" opacity="0.996078431372549" d="M 553.5 103 L 539.5 118 L 553.5 103 Z " /><path fill="rgb(214,218,67)" stroke="rgb(214,218,67)" stroke-width="1" opacity="0.996078431372549" d="M 581.5 103 L 564.5 121 L 581.5 103 Z " /><path fill="rgb(214,218,67)" stroke="rgb(214,218,67)" stroke-width="1" opacity="0.996078431372549" d="M 485.5 114 L 486 216.5 L 485 216.5 L 485.5 114 Z " /><path fill="rgb(214,218,67)" stroke="rgb(214,218,67)" stroke-width="1" opacity="0.996078431372549" d="M 620.5 115 L 621 139.5 L 620 139.5 L 620.5 115 Z " /><path fill="rgb(214,218,67)" stroke="rgb(214,218,67)" stroke-width="1" opacity="0.996078431372549" d="M 678.5 115 L 679 130 L 698 130.5 L 679.5 131 L 678 129.5 L 678.5 115 Z " /><path fill="rgb(214,218,67)" stroke="rgb(214,218,67)" stroke-width="1" opacity="0.996078431372549" d="M 534.5 122 L 535 134.5 L 534 134.5 L 534.5 122 Z " /><path fill="rgb(214,218,67)" stroke="rgb(214,218,67)" stroke-width="1" opacity="0.996078431372549" d="M 19 139 L 96 139.5 L 20 140 L 19.5 159 L 19 139 Z " /><path fill="rgb(214,218,67)" stroke="rgb(214,218,67)" stroke-width="1" opacity="0.996078431372549" d="M 504.5 139 L 582 139.5 L 504.5 140 L 504.5 139 Z " /><path fill="rgb(214,218,67)" stroke="rgb(214,218,67)" stroke-width="1" opacity="0.996078431372549" d="M 214.5 140 L 215 216.5 L 214 216.5 L 214.5 140 Z " /><path fill="rgb(214,218,67)" stroke="rgb(214,218,67)" stroke-width="1" opacity="0.996078431372549" d="M 291.5 140 L 292 216.5 L 291 216.5 L 291.5 140 Z " /><path fill="rgb(214,218,67)" stroke="rgb(214,218,67)" stroke-width="1" opacity="0.996078431372549" d="M 407.5 140 L 408 216.5 L 407 216.5 L 407.5 140 Z " /><path fill="rgb(214,218,67)" stroke="rgb(214,218,67)" stroke-width="1" opacity="0.996078431372549" d="M 795.5 140 L 796 216.5 L 795 216.5 L 795.5 140 Z " /><path fill="rgb(214,218,67)" stroke="rgb(214,218,67)" stroke-width="1" opacity="0.996078431372549" d="M 814.5 140 L 815 216.5 L 814 216.5 L 814.5 140 Z " /><path fill="rgb(214,218,67)" stroke="rgb(214,218,67)" stroke-width="1" opacity="0.996078431372549" d="M 310.5 141 L 311 216.5 L 310 216.5 L 310.5 141 Z " /><path fill="rgb(214,218,67)" stroke="rgb(214,218,67)" stroke-width="1" opacity="0.996078431372549" d="M 659.5 141 L 660 158.5 L 659 158.5 L 659.5 141 Z " /><path fill="rgb(214,218,67)" stroke="rgb(214,218,67)" stroke-width="1" opacity="0.996078431372549" d="M 678.5 141 L 679 216.5 L 678 216.5 L 678.5 141 Z " /><path fill="rgb(214,218,67)" stroke="rgb(214,218,67)" stroke-width="1" opacity="0.996078431372549" d="M 174.5 159 L 175 198 L 137 197.5 L 174 197 L 174.5 159 Z " /><path fill="rgb(214,218,67)" stroke="rgb(214,218,67)" stroke-width="1" opacity="0.996078431372549" d="M 368.5 159 L 369 216.5 L 368 216.5 L 368.5 159 Z " /><path fill="rgb(214,218,67)" stroke="rgb(214,218,67)" stroke-width="1" opacity="0.996078431372549" d="M 620.5 159 L 621 197 L 658.5 197 L 660 198.5 L 659.5 217 L 659 198 L 620 198 L 620.5 159 Z " /><path fill="rgb(214,218,67)" stroke="rgb(214,218,67)" stroke-width="1" opacity="0.996078431372549" d="M 737.5 159 L 738 197 L 775 197.5 L 737 198 L 737.5 159 Z " /><path fill="rgb(214,218,67)" stroke="rgb(214,218,67)" stroke-width="1" opacity="0.996078431372549" d="M 872.5 159 L 873 216.5 L 872 216.5 L 872.5 159 Z " /><path fill="rgb(214,218,67)" stroke="rgb(214,218,67)" stroke-width="1" opacity="0.996078431372549" d="M 504.5 170 L 562 170.5 L 504.5 171 L 504.5 170 Z " /><path fill="rgb(214,218,67)" stroke="rgb(214,218,67)" stroke-width="1" opacity="0.996078431372549" d="M 19 178 L 96 178.5 L 20 179 L 19.5 217 L 19 178 Z " /><path fill="rgb(214,218,67)" stroke="rgb(214,218,67)" stroke-width="1" opacity="0.996078431372549" d="M 524 186 L 562 186.5 L 525 187 L 525 198.5 L 525.5 199 L 561.5 199 L 561.5 200 L 524 200 L 524 186 Z " /><path fill="rgb(214,218,67)" stroke="rgb(214,218,67)" stroke-width="1" opacity="0.996078431372549" d="M 234.5 197 L 272 197.5 L 234.5 198 L 234.5 197 Z " /><path fill="rgb(214,218,67)" stroke="rgb(214,218,67)" stroke-width="1" opacity="0.996078431372549" d="M 427.5 197 L 465 197.5 L 427.5 198 L 427.5 197 Z " /><path fill="rgb(252,255,79)" stroke="rgb(252,255,79)" stroke-width="1" opacity="1" d="M 0 0 L 253 0.5 L 252 1.5 L 252 103 L 310.5 103 L 311 102.5 L 311 84.5 L 309.5 83 L 272 83 L 272 45 L 311 45 L 311 26.5 L 309.5 25 L 272 25 L 272 0.5 L 272.5 0 L 630 0 L 630 109.5 L 629 110.5 L 940 111 L 940 217 L 892 217 L 892 140 L 814 140 L 814 216.5 L 813.5 217 L 796 217 L 796 140 L 717 140 L 717 216.5 L 716.5 217 L 698 217 L 698 141.5 L 697.5 141 L 678 141 L 678 216.5 L 677.5 217 L 660 217 L 660 198.5 L 658.5 197 L 621 197 L 621 159 L 660 159 L 660 141.5 L 658.5 140 L 621 140 L 621 115 L 601 115 L 601 216.5 L 600.5 217 L 582 217 L 582 139 L 504 139 L 504 158 L 561.5 158 L 562 158.5 L 562 170 L 504 170 L 504 217 L 486 217 L 486 114.5 L 485.5 114 L 465 114 L 465 140 L 407 140 L 407 216.5 L 406.5 217 L 388 217 L 388 140 L 311.5 140 L 310 141.5 L 310 217 L 292.5 217 L 292 216.5 L 292 140 L 272 140 L 272 197 L 234 197 L 234 140 L 214 140 L 214 216.5 L 213.5 217 L 195 217 L 195 140 L 117 140 L 117 217 L 20 217 L 20 179 L 95.5 179 L 96 178.5 L 96 159 L 20.5 159 L 20 158.5 L 20 140 L 95.5 140 L 96 139.5 L 96 120 L 0.5 120 L 0 119.5 L 0 103 L 97 103 L 97 6 L 77.5 6 L 77 6.5 L 77 83 L 20 83 L 20 6.5 L 19.5 6 L 0 6 L 0 0 Z M 213 1 L 213 16 L 215 17 L 233 17 L 233 1 L 213 1 Z M 117 25 L 117 103 L 136 103 L 136 103 L 136 45 L 174 45 L 174 103 L 194 103 L 194 25 L 117 25 Z M 331 25 L 329 27 L 329 43 L 331 44 L 387 44 L 387 56 L 387 56 L 331 56 L 329 58 L 329 102 L 331 103 L 408 103 L 408 25 L 331 25 Z M 427 25 L 427 103 L 447 103 L 447 45 L 467 45 L 467 64 L 469 65 L 487 65 L 488 64 L 488 27 L 487 25 L 427 25 Z M 506 25 L 504 27 L 504 103 L 553 104 L 534 123 L 534 135 L 550 135 L 582 104 L 582 26 L 582 25 L 564 25 L 562 27 L 562 83 L 524 83 L 524 26 L 524 25 L 506 25 Z M 213 27 L 213 103 L 214 103 L 233 103 L 233 28 L 233 27 L 213 27 Z M 678 115 L 678 130 L 680 131 L 698 131 L 698 115 L 678 115 Z " /><path fill="rgb(252,255,79)" stroke="rgb(252,255,79)" stroke-width="1" opacity="1" d="M 350 73 L 386.5 73 L 387 73.5 L 387 85 L 350.5 85 L 350 84.5 L 350 73 Z " /><path fill="rgb(252,255,79)" stroke="rgb(252,255,79)" stroke-width="1" opacity="1" d="M 137 159 L 174 159 L 174 197 L 137 197 L 137 159 Z " /><path fill="rgb(252,255,79)" stroke="rgb(252,255,79)" stroke-width="1" opacity="1" d="M 331.5 159 L 368 159 L 368 217 L 330 217 L 330 160.5 L 331.5 159 Z " /><path fill="rgb(252,255,79)" stroke="rgb(252,255,79)" stroke-width="1" opacity="1" d="M 427 159 L 465 159 L 465 197 L 427 197 L 427 159 Z " /><path fill="rgb(252,255,79)" stroke="rgb(252,255,79)" stroke-width="1" opacity="1" d="M 738 159 L 775 159 L 775 197 L 738 197 L 738 159 Z " /><path fill="rgb(252,255,79)" stroke="rgb(252,255,79)" stroke-width="1" opacity="1" d="M 834 159 L 872 159 L 872 217 L 834 217 L 834 159 Z " /><path fill="rgb(252,255,79)" stroke="rgb(252,255,79)" stroke-width="1" opacity="1" d="M 525 187 L 561.5 187 L 562 187.5 L 562 199 L 525.5 199 L 525 198.5 L 525 187 Z " /></svg>