<?xml version="1.0" standalone="no"?>
<!DOCTYPE svg PUBLIC "-//W3C//DTD SVG 20010904//EN"
 "http://www.w3.org/TR/2001/REC-SVG-20010904/DTD/svg10.dtd">
<svg version="1.0" xmlns="http://www.w3.org/2000/svg"
 width="72.000000pt" height="72.000000pt" viewBox="0 0 72.000000 72.000000"
 preserveAspectRatio="xMidYMid meet">

<g transform="translate(0.000000,72.000000) scale(0.100000,-0.100000)"
fill="#000000" stroke="none">
<path d="M80 365 l0 -155 155 0 155 0 0 60 0 59 123 3 122 3 3 27 3 27 -123 3
-123 3 -3 33 -3 32 125 0 126 0 0 30 0 30 -155 0 -155 0 0 -125 0 -126 -92 3
-93 3 -3 123 -3 122 -29 0 -30 0 0 -155z"/>
</g>
</svg>
