<svg width="295" height="68" version="1.1" xmlns="http://www.w3.org/2000/svg" desc="Created with imagetracer.js version 1.2.6" ><path fill="rgb(56,57,15)" stroke="rgb(56,57,15)" stroke-width="1" opacity="1" d="M 67.5 0 L 73 0.5 L 67.5 1 L 67.5 0 Z " /><path fill="rgb(56,57,15)" stroke="rgb(56,57,15)" stroke-width="1" opacity="1" d="M 79 0 L 85 0.5 L 80 1 L 79.5 32 L 79 0 Z " /><path fill="rgb(56,57,15)" stroke="rgb(56,57,15)" stroke-width="1" opacity="1" d="M 24.5 2 L 25 25.5 L 23.5 27 L 6.5 27 L 6.5 26 L 24 26 L 24.5 2 Z " /><path fill="rgb(56,57,15)" stroke="rgb(56,57,15)" stroke-width="1" opacity="1" d="M 37.5 8 L 61 8 L 61 31.5 L 60 31.5 L 60 9 L 37.5 9 L 37.5 8 Z " /><path fill="rgb(56,57,15)" stroke="rgb(56,57,15)" stroke-width="1" opacity="1" d="M 68.5 8 L 73 8.5 L 68.5 9 L 68.5 8 Z " /><path fill="rgb(56,57,15)" stroke="rgb(56,57,15)" stroke-width="1" opacity="1" d="M 86.5 8 L 97 8.5 L 86.5 9 L 86.5 8 Z " /><path fill="rgb(56,57,15)" stroke="rgb(56,57,15)" stroke-width="1" opacity="1" d="M 134.5 8 L 153 8.5 L 134.5 9 L 134.5 8 Z " /><path fill="rgb(56,57,15)" stroke="rgb(56,57,15)" stroke-width="1" opacity="1" d="M 159.5 8 L 164 8.5 L 159 9 L 158.5 32 L 158 9.5 L 159.5 8 Z " /><path fill="rgb(56,57,15)" stroke="rgb(56,57,15)" stroke-width="1" opacity="1" d="M 177.5 8 Q 182.9 7.4 183 8.5 L 183 31.5 L 182 31.5 L 182 9.5 Q 182 8.5 177.5 9 L 177.5 8 Z " /><path fill="rgb(56,57,15)" stroke="rgb(56,57,15)" stroke-width="1" opacity="1" d="M 104.5 13 L 122 13.5 L 104.5 14 L 104.5 13 Z " /><path fill="rgb(56,57,15)" stroke="rgb(56,57,15)" stroke-width="1" opacity="1" d="M 42.5 14 L 43 31.5 L 42 31.5 L 42.5 14 Z " /><path fill="rgb(56,57,15)" stroke="rgb(56,57,15)" stroke-width="1" opacity="1" d="M 110.5 22 L 122 22.5 L 110 23 L 109.5 27 L 109 23.5 L 110.5 22 Z " /><path fill="rgb(56,57,15)" stroke="rgb(56,57,15)" stroke-width="1" opacity="1" d="M 85.5 26 L 97 26.5 L 85.5 27 L 85.5 26 Z " /><path fill="rgb(56,57,15)" stroke="rgb(56,57,15)" stroke-width="1" opacity="1" d="M 164.5 26 L 177 26.5 L 164.5 27 L 164.5 26 Z " /><path fill="rgb(56,57,15)" stroke="rgb(56,57,15)" stroke-width="1" opacity="1" d="M 194.5 36 L 195 43.5 L 194 43.5 L 194.5 36 Z " /><path fill="rgb(56,57,15)" stroke="rgb(56,57,15)" stroke-width="1" opacity="1" d="M 213.5 36 L 219 36.5 L 213.5 37 L 213.5 36 Z " /><path fill="rgb(56,57,15)" stroke="rgb(56,57,15)" stroke-width="1" opacity="1" d="M 213.5 40 L 219 40.5 L 213.5 41 L 213.5 40 Z " /><path fill="rgb(56,57,15)" stroke="rgb(56,57,15)" stroke-width="1" opacity="1" d="M 6.5 43 L 30 43.5 L 6.5 44 L 6.5 43 Z " /><path fill="rgb(56,57,15)" stroke="rgb(56,57,15)" stroke-width="1" opacity="1" d="M 67.5 44 L 68 67.5 L 67 67.5 L 67.5 44 Z " /><path fill="rgb(56,57,15)" stroke="rgb(56,57,15)" stroke-width="1" opacity="1" d="M 85.5 44 L 86 61.5 L 85 61.5 L 85.5 44 Z " /><path fill="rgb(56,57,15)" stroke="rgb(56,57,15)" stroke-width="1" opacity="1" d="M 121.5 44 L 122 67.5 L 121 67.5 L 121.5 44 Z " /><path fill="rgb(56,57,15)" stroke="rgb(56,57,15)" stroke-width="1" opacity="1" d="M 158.5 44 L 159 49 L 176.5 49 L 177 54 L 159 54 L 159 67.5 L 158 67.5 L 158 54.5 L 159.5 53 L 175.5 53 L 176 50 L 159.5 50 L 158 48.5 L 158.5 44 Z " /><path fill="rgb(56,57,15)" stroke="rgb(56,57,15)" stroke-width="1" opacity="1" d="M 182.5 44 L 183 67.5 L 182 67.5 L 182.5 44 Z " /><path fill="rgb(56,57,15)" stroke="rgb(56,57,15)" stroke-width="1" opacity="1" d="M 206.5 44 L 207 50 L 195 50 L 195 61.5 L 194 61.5 L 194 50.5 L 195.5 49 L 206 49 L 206.5 44 Z " /><path fill="rgb(56,57,15)" stroke="rgb(56,57,15)" stroke-width="1" opacity="1" d="M 213.5 44 L 219 44.5 L 213.5 45 L 213.5 44 Z " /><path fill="rgb(56,57,15)" stroke="rgb(56,57,15)" stroke-width="1" opacity="1" d="M 225.5 44 L 226 67.5 L 225 67.5 L 225.5 44 Z " /><path fill="rgb(56,57,15)" stroke="rgb(56,57,15)" stroke-width="1" opacity="1" d="M 249.5 44 L 250 67.5 L 249 67.5 L 249.5 44 Z " /><path fill="rgb(56,57,15)" stroke="rgb(56,57,15)" stroke-width="1" opacity="1" d="M 279.5 44 L 280 67.5 L 279 67.5 L 279.5 44 Z " /><path fill="rgb(56,57,15)" stroke="rgb(56,57,15)" stroke-width="1" opacity="1" d="M 43.5 49 L 55 49.5 L 43.5 50 L 43.5 49 Z " /><path fill="rgb(56,57,15)" stroke="rgb(56,57,15)" stroke-width="1" opacity="1" d="M 104.5 49 L 115 49.5 L 104 50 L 103.5 68 L 103 50.5 L 104.5 49 Z " /><path fill="rgb(56,57,15)" stroke="rgb(56,57,15)" stroke-width="1" opacity="1" d="M 134.5 49 L 146 49.5 L 134 50 L 133.5 61 L 133 50.5 L 134.5 49 Z " /><path fill="rgb(56,57,15)" stroke="rgb(56,57,15)" stroke-width="1" opacity="1" d="M 232.5 49 L 242.5 49 L 244 50.5 L 243.5 62 L 243 50 L 232.5 50 L 232.5 49 Z " /><path fill="rgb(56,57,15)" stroke="rgb(56,57,15)" stroke-width="1" opacity="1" d="M 262.5 49 L 274 49.5 L 262 50 L 261.5 68 L 261 50.5 L 262.5 49 Z " /><path fill="rgb(56,57,15)" stroke="rgb(56,57,15)" stroke-width="1" opacity="1" d="M 6.5 55 L 30 55.5 L 6.5 56 L 6.5 55 Z " /><path fill="rgb(56,57,15)" stroke="rgb(56,57,15)" stroke-width="1" opacity="1" d="M 164.5 58 L 165 62.5 L 164 62.5 L 164.5 58 Z " /><path fill="rgb(56,57,15)" stroke="rgb(56,57,15)" stroke-width="1" opacity="1" d="M 176.5 58 L 177 62.5 L 176 62.5 L 176.5 58 Z " /><path fill="rgb(56,57,15)" stroke="rgb(56,57,15)" stroke-width="1" opacity="1" d="M 206.5 62 L 207 67.5 L 206 67.5 L 206.5 62 Z " /><path fill="rgb(0,0,0)" stroke="rgb(0,0,0)" stroke-width="1" opacity="1" d="M 67 1 L 73 1 L 73 5 L 67 5 L 67 1 Z " /><path fill="rgb(0,0,0)" stroke="rgb(0,0,0)" stroke-width="1" opacity="1" d="M 80 1 L 85 1 L 85 7.5 L 86.5 9 L 97 9 L 97 14 L 85 14 L 85 27 L 97 27 L 97 32 L 80 32 L 80 1 Z " /><path fill="rgb(0,0,0)" stroke="rgb(0,0,0)" stroke-width="1" opacity="1" d="M 0 2 L 5.5 2 L 6 2.5 L 6 27 L 23.5 27 L 25 25.5 L 25 2 L 30 2.5 L 30 32 L 0 32 L 0 2 Z " /><path fill="rgb(0,0,0)" stroke="rgb(0,0,0)" stroke-width="1" opacity="1" d="M 104 8 L 126.5 8 L 128 9.5 L 128 32 L 104 32 L 104 18 L 121.5 18 L 122 13 L 104.5 13 L 104 8 Z M 111 22 L 109 24 L 110 27 L 122 27 L 122 22 L 111 22 Z " /><path fill="rgb(0,0,0)" stroke="rgb(0,0,0)" stroke-width="1" opacity="1" d="M 37 9 L 60 9 L 60 32 L 55 31.5 L 55 14 L 42 14 L 42 31.5 L 37 32 L 37 9 Z " /><path fill="rgb(0,0,0)" stroke="rgb(0,0,0)" stroke-width="1" opacity="1" d="M 67 9 L 72.5 9 L 73 9.5 L 73 32 L 67.5 32 L 67 31.5 L 67 9 Z " /><path fill="rgb(0,0,0)" stroke="rgb(0,0,0)" stroke-width="1" opacity="1" d="M 134 9 L 153 9 L 153 20 L 147 20 L 147 14 L 140 14 L 140 32 L 134 32 L 134 9 Z " /><path fill="rgb(0,0,0)" stroke="rgb(0,0,0)" stroke-width="1" opacity="1" d="M 159 9 L 164 9.5 L 164 27 L 177 27 L 177 9.5 L 182 9 L 182 32.5 L 172.5 42 Q 166.2 44.2 168 38.5 L 173.5 32 L 159 32 L 159 9 Z " /><path fill="rgb(0,0,0)" stroke="rgb(0,0,0)" stroke-width="1" opacity="1" d="M 146 36 L 151.5 36 L 152 36.5 L 152 68 L 128 68 L 128 44 L 146 44 L 146 36 Z M 135 49 L 133 51 L 133 61 L 135 62 L 146 62 L 146 49 L 135 49 Z " /><path fill="rgb(0,0,0)" stroke="rgb(0,0,0)" stroke-width="1" opacity="1" d="M 189 36 L 194 36 L 194 44 L 206 44 L 206 49 L 195.5 49 L 194 50.5 L 194 62 L 206 62 L 206 68 L 189 68 L 189 36 Z " /><path fill="rgb(0,0,0)" stroke="rgb(0,0,0)" stroke-width="1" opacity="1" d="M 213 37 L 219 37 L 219 40 L 213 40 L 213 37 Z " /><path fill="rgb(0,0,0)" stroke="rgb(0,0,0)" stroke-width="1" opacity="1" d="M 0 38 L 29.5 38 L 30 43 L 6.5 43 L 6 43.5 L 6 50 L 29.5 50 L 30 55 L 6 55 L 6 68 L 0 68 L 0 38 Z " /><path fill="rgb(0,0,0)" stroke="rgb(0,0,0)" stroke-width="1" opacity="1" d="M 37 44 L 61 44 L 61 68 L 37 68 L 37 44 Z M 43 49 L 43 62 L 55 62 L 55 49 L 43 49 Z " /><path fill="rgb(0,0,0)" stroke="rgb(0,0,0)" stroke-width="1" opacity="1" d="M 68 44 L 73 44.5 L 73 62 L 86 62 L 86 44.5 L 91 44 L 91 68 L 68 68 L 68 44 Z " /><path fill="rgb(0,0,0)" stroke="rgb(0,0,0)" stroke-width="1" opacity="1" d="M 98 44 L 121 44 L 121 68 L 116 67.5 L 116 50.5 L 114.5 49 L 104.5 49 L 103 50.5 L 103 68 L 98 67.5 L 98 44 Z " /><path fill="rgb(0,0,0)" stroke="rgb(0,0,0)" stroke-width="1" opacity="1" d="M 159 44 L 182 44 L 182 68 L 159 68 L 159 54 L 176.5 54 L 177 49 L 159.5 49 L 159 44 Z M 164 58 L 164 63 L 177 63 L 177 58 L 164 58 Z " /><path fill="rgb(0,0,0)" stroke="rgb(0,0,0)" stroke-width="1" opacity="1" d="M 226 44 L 249 44 L 249 68 L 226 68 L 226 44 Z M 233 49 L 231 51 L 231 62 L 244 62 L 244 51 L 243 49 L 233 49 Z " /><path fill="rgb(0,0,0)" stroke="rgb(0,0,0)" stroke-width="1" opacity="1" d="M 256 44 L 279 44 L 279 68 L 274 67.5 L 274 49 L 262.5 49 L 261 50.5 L 261 68 L 256 67.5 L 256 44 Z " /><path fill="rgb(0,0,0)" stroke="rgb(0,0,0)" stroke-width="1" opacity="1" d="M 213 45 L 218.5 45 L 219 45.5 L 219 68 L 213.5 68 L 213 67.5 L 213 45 Z " /><path fill="rgb(199,202,62)" stroke="rgb(199,202,62)" stroke-width="1" opacity="0.996078431372549" d="M 85.5 0 L 86 7.5 L 85 7.5 L 85.5 0 Z " /><path fill="rgb(199,202,62)" stroke="rgb(199,202,62)" stroke-width="1" opacity="0.996078431372549" d="M 6.5 2 L 7 25.5 L 6 25.5 L 6.5 2 Z " /><path fill="rgb(199,202,62)" stroke="rgb(199,202,62)" stroke-width="1" opacity="0.996078431372549" d="M 30.5 2 L 31 31.5 L 29.5 33 L 0.5 33 L 0.5 32 L 30 32 L 30.5 2 Z " /><path fill="rgb(199,202,62)" stroke="rgb(199,202,62)" stroke-width="1" opacity="0.996078431372549" d="M 36.5 8 L 37 32 L 43 32.5 L 37.5 33 L 36 31.5 L 36.5 8 Z " /><path fill="rgb(199,202,62)" stroke="rgb(199,202,62)" stroke-width="1" opacity="0.996078431372549" d="M 97.5 8 L 98 13.5 L 97 13.5 L 97.5 8 Z " /><path fill="rgb(199,202,62)" stroke="rgb(199,202,62)" stroke-width="1" opacity="0.996078431372549" d="M 103.5 8 L 104 13.5 L 103 13.5 L 103.5 8 Z " /><path fill="rgb(199,202,62)" stroke="rgb(199,202,62)" stroke-width="1" opacity="0.996078431372549" d="M 164.5 8 L 165 25.5 L 164 25.5 L 164.5 8 Z " /><path fill="rgb(199,202,62)" stroke="rgb(199,202,62)" stroke-width="1" opacity="0.996078431372549" d="M 176.5 8 L 177 25.5 L 176 25.5 L 176.5 8 Z " /><path fill="rgb(199,202,62)" stroke="rgb(199,202,62)" stroke-width="1" opacity="0.996078431372549" d="M 85.5 14 L 86 25.5 L 85 25.5 L 85.5 14 Z " /><path fill="rgb(199,202,62)" stroke="rgb(199,202,62)" stroke-width="1" opacity="0.996078431372549" d="M 121.5 14 L 122 16.5 L 120.5 18 L 104 18 L 104 32 L 127.5 32 L 127.5 33 L 104.5 33 L 103 31.5 L 103 17 L 120.5 17 L 121.5 14 Z " /><path fill="rgb(199,202,62)" stroke="rgb(199,202,62)" stroke-width="1" opacity="0.996078431372549" d="M 140.5 14 L 141 31.5 Q 139.8 34.3 134.5 33 L 134.5 32 Q 139.9 32.6 140 31.5 L 140.5 14 Z " /><path fill="rgb(199,202,62)" stroke="rgb(199,202,62)" stroke-width="1" opacity="0.996078431372549" d="M 146.5 14 L 147 19.5 L 146 19.5 L 146.5 14 Z " /><path fill="rgb(199,202,62)" stroke="rgb(199,202,62)" stroke-width="1" opacity="0.996078431372549" d="M 121.5 23 L 122 27 L 110 26.5 L 121 26 L 121.5 23 Z " /><path fill="rgb(199,202,62)" stroke="rgb(199,202,62)" stroke-width="1" opacity="0.996078431372549" d="M 97.5 26 L 98 31.5 L 96.5 33 L 79.5 33 L 79.5 32 L 96.5 32 L 97 31.5 L 97.5 26 Z " /><path fill="rgb(199,202,62)" stroke="rgb(199,202,62)" stroke-width="1" opacity="0.996078431372549" d="M 55.5 32 L 61 32.5 L 55.5 33 L 55.5 32 Z " /><path fill="rgb(199,202,62)" stroke="rgb(199,202,62)" stroke-width="1" opacity="0.996078431372549" d="M 67.5 32 L 73 32.5 L 67.5 33 L 67.5 32 Z " /><path fill="rgb(199,202,62)" stroke="rgb(199,202,62)" stroke-width="1" opacity="0.996078431372549" d="M 158.5 32 L 174 32.5 L 168 38.5 L 168 42 L 172.5 42 L 182.5 32 L 173.5 43 L 182 43.5 L 158.5 44 L 158.5 43 L 168 42.5 L 167 38.5 L 171.5 33 L 158.5 33 L 158.5 32 Z " /><path fill="rgb(199,202,62)" stroke="rgb(199,202,62)" stroke-width="1" opacity="0.996078431372549" d="M 146.5 35 Q 151.8 33.8 153 36.5 L 152.5 68 L 152 36 L 146.5 36 L 146.5 35 Z " /><path fill="rgb(199,202,62)" stroke="rgb(199,202,62)" stroke-width="1" opacity="0.996078431372549" d="M 188.5 36 L 189 67.5 L 188 67.5 L 188.5 36 Z " /><path fill="rgb(199,202,62)" stroke="rgb(199,202,62)" stroke-width="1" opacity="0.996078431372549" d="M 0.5 37 L 30 37.5 L 0.5 38 L 0.5 37 Z " /><path fill="rgb(199,202,62)" stroke="rgb(199,202,62)" stroke-width="1" opacity="0.996078431372549" d="M 36.5 44 L 37 67.5 L 36 67.5 L 36.5 44 Z " /><path fill="rgb(199,202,62)" stroke="rgb(199,202,62)" stroke-width="1" opacity="0.996078431372549" d="M 61.5 44 L 62 67.5 L 61 67.5 L 61.5 44 Z " /><path fill="rgb(199,202,62)" stroke="rgb(199,202,62)" stroke-width="1" opacity="0.996078431372549" d="M 73.5 44 L 74 61.5 L 73 61.5 L 73.5 44 Z " /><path fill="rgb(199,202,62)" stroke="rgb(199,202,62)" stroke-width="1" opacity="0.996078431372549" d="M 91.5 44 L 92 67.5 L 91 67.5 L 91.5 44 Z " /><path fill="rgb(199,202,62)" stroke="rgb(199,202,62)" stroke-width="1" opacity="0.996078431372549" d="M 97.5 44 L 98 67.5 L 97 67.5 L 97.5 44 Z " /><path fill="rgb(199,202,62)" stroke="rgb(199,202,62)" stroke-width="1" opacity="0.996078431372549" d="M 255.5 44 L 256 67.5 L 255 67.5 L 255.5 44 Z " /><path fill="rgb(199,202,62)" stroke="rgb(199,202,62)" stroke-width="1" opacity="0.996078431372549" d="M 6.5 49 L 30 49.5 L 6.5 50 L 6.5 49 Z " /><path fill="rgb(199,202,62)" stroke="rgb(199,202,62)" stroke-width="1" opacity="0.996078431372549" d="M 115.5 50 L 116 67.5 L 115 67.5 L 115.5 50 Z " /><path fill="rgb(199,202,62)" stroke="rgb(199,202,62)" stroke-width="1" opacity="0.996078431372549" d="M 231.5 50 L 232 61.5 L 231 61.5 L 231.5 50 Z " /><path fill="rgb(199,202,62)" stroke="rgb(199,202,62)" stroke-width="1" opacity="0.996078431372549" d="M 165.5 58 L 176 58.5 L 165.5 59 L 165.5 58 Z " /><path fill="rgb(199,202,62)" stroke="rgb(199,202,62)" stroke-width="1" opacity="0.996078431372549" d="M 165.5 62 L 176 62.5 L 165.5 63 L 165.5 62 Z " /><path fill="rgb(0,0,0)" stroke="rgb(0,0,0)" stroke-width="1" opacity="0" d="M 198 0 L 295 0 L 295 34 L 198 34 L 198 0 Z " /><path fill="rgb(251,254,78)" stroke="rgb(251,254,78)" stroke-width="1" opacity="0.996078431372549" d="M 73.5 0 L 74 6 L 67 5.5 L 73 5 L 73.5 0 Z " /><path fill="rgb(251,254,78)" stroke="rgb(251,254,78)" stroke-width="1" opacity="0.996078431372549" d="M 197.5 0 L 198 33.5 L 197 33.5 L 197.5 0 Z " /><path fill="rgb(251,254,78)" stroke="rgb(251,254,78)" stroke-width="1" opacity="0.996078431372549" d="M 0.5 1 L 7 1.5 L 0.5 2 L 0.5 1 Z " /><path fill="rgb(251,254,78)" stroke="rgb(251,254,78)" stroke-width="1" opacity="0.996078431372549" d="M 24.5 1 L 31 1.5 L 24.5 2 L 24.5 1 Z " /><path fill="rgb(251,254,78)" stroke="rgb(251,254,78)" stroke-width="1" opacity="0.996078431372549" d="M 73.5 8 L 74 32.5 L 73 32.5 L 73.5 8 Z " /><path fill="rgb(251,254,78)" stroke="rgb(251,254,78)" stroke-width="1" opacity="0.996078431372549" d="M 133.5 8 L 134 32.5 L 133 32.5 L 133.5 8 Z " /><path fill="rgb(251,254,78)" stroke="rgb(251,254,78)" stroke-width="1" opacity="0.996078431372549" d="M 153.5 8 L 154 19.5 Q 152.5 22.5 146.5 21 L 146.5 20 L 153 20 L 153.5 8 Z " /><path fill="rgb(251,254,78)" stroke="rgb(251,254,78)" stroke-width="1" opacity="0.996078431372549" d="M 43.5 14 L 53.5 14 L 55 15.5 L 54.5 33 L 54 15 L 43.5 15 L 43.5 14 Z " /><path fill="rgb(251,254,78)" stroke="rgb(251,254,78)" stroke-width="1" opacity="0.996078431372549" d="M 86.5 14 L 98 14.5 L 86.5 15 L 86.5 14 Z " /><path fill="rgb(251,254,78)" stroke="rgb(251,254,78)" stroke-width="1" opacity="0.996078431372549" d="M 141.5 14 L 146 14.5 L 141.5 15 L 141.5 14 Z " /><path fill="rgb(251,254,78)" stroke="rgb(251,254,78)" stroke-width="1" opacity="0.996078431372549" d="M 145.5 36 L 146 44 L 128 44 L 128 67.5 L 127 67.5 L 127 43 L 145 43 L 145.5 36 Z " /><path fill="rgb(251,254,78)" stroke="rgb(251,254,78)" stroke-width="1" opacity="0.996078431372549" d="M 212.5 36 L 213 40.5 L 212 40.5 L 212.5 36 Z " /><path fill="rgb(251,254,78)" stroke="rgb(251,254,78)" stroke-width="1" opacity="0.996078431372549" d="M 30.5 37 L 31 43.5 L 30 43.5 L 30.5 37 Z " /><path fill="rgb(251,254,78)" stroke="rgb(251,254,78)" stroke-width="1" opacity="0.996078431372549" d="M 36.5 43 L 62 43.5 L 36.5 44 L 36.5 43 Z " /><path fill="rgb(251,254,78)" stroke="rgb(251,254,78)" stroke-width="1" opacity="0.996078431372549" d="M 67.5 43 L 74 43.5 L 67.5 44 L 67.5 43 Z " /><path fill="rgb(251,254,78)" stroke="rgb(251,254,78)" stroke-width="1" opacity="0.996078431372549" d="M 85.5 43 L 92 43.5 L 85.5 44 L 85.5 43 Z " /><path fill="rgb(251,254,78)" stroke="rgb(251,254,78)" stroke-width="1" opacity="0.996078431372549" d="M 97.5 43 L 122 43.5 L 97.5 44 L 97.5 43 Z " /><path fill="rgb(251,254,78)" stroke="rgb(251,254,78)" stroke-width="1" opacity="0.996078431372549" d="M 195.5 43 L 207 43.5 L 195.5 44 L 195.5 43 Z " /><path fill="rgb(251,254,78)" stroke="rgb(251,254,78)" stroke-width="1" opacity="0.996078431372549" d="M 225.5 43 L 250 43.5 L 225.5 44 L 225.5 43 Z " /><path fill="rgb(251,254,78)" stroke="rgb(251,254,78)" stroke-width="1" opacity="0.996078431372549" d="M 255.5 43 L 280 43.5 L 255.5 44 L 255.5 43 Z " /><path fill="rgb(251,254,78)" stroke="rgb(251,254,78)" stroke-width="1" opacity="0.996078431372549" d="M 6.5 44 L 7 48.5 L 6 48.5 L 6.5 44 Z " /><path fill="rgb(251,254,78)" stroke="rgb(251,254,78)" stroke-width="1" opacity="0.996078431372549" d="M 212.5 44 L 213 67.5 L 212 67.5 L 212.5 44 Z " /><path fill="rgb(251,254,78)" stroke="rgb(251,254,78)" stroke-width="1" opacity="0.996078431372549" d="M 30.5 49 L 31 55.5 L 30 55.5 L 30.5 49 Z " /><path fill="rgb(251,254,78)" stroke="rgb(251,254,78)" stroke-width="1" opacity="0.996078431372549" d="M 54.5 50 L 55 60.5 L 53.5 62 L 43.5 62 L 43.5 61 L 54 61 L 54.5 50 Z " /><path fill="rgb(251,254,78)" stroke="rgb(251,254,78)" stroke-width="1" opacity="0.996078431372549" d="M 145.5 50 L 146 62 L 134 61.5 L 145 61 L 145.5 50 Z " /><path fill="rgb(251,254,78)" stroke="rgb(251,254,78)" stroke-width="1" opacity="0.996078431372549" d="M 273.5 50 L 274 67.5 L 273 67.5 L 273.5 50 Z " /><path fill="rgb(251,254,78)" stroke="rgb(251,254,78)" stroke-width="1" opacity="0.996078431372549" d="M 6.5 56 L 7 67.5 L 6 67.5 L 6.5 56 Z " /><path fill="rgb(251,254,78)" stroke="rgb(251,254,78)" stroke-width="1" opacity="0.996078431372549" d="M 74.5 61 L 85 61.5 L 74.5 62 L 74.5 61 Z " /><path fill="rgb(251,254,78)" stroke="rgb(251,254,78)" stroke-width="1" opacity="0.996078431372549" d="M 195.5 61 L 207 61.5 L 195.5 62 L 195.5 61 Z " /><path fill="rgb(251,254,78)" stroke="rgb(251,254,78)" stroke-width="1" opacity="0.996078431372549" d="M 232.5 61 L 243 61.5 L 232.5 62 L 232.5 61 Z " /><path fill="rgb(252,255,79)" stroke="rgb(252,255,79)" stroke-width="1" opacity="1" d="M 0.5 0 L 66.5 0 L 67 0.5 L 67 6 L 74 6 L 74 0 L 79 0 L 79 33 L 98 33 L 98 26 L 86 26 L 86 15 L 98 15 L 98 8 L 86 8 L 86 0 L 196.5 0 L 197 0.5 L 197 35 L 295 35 L 295 68 L 280 68 L 280 43 L 255 43 L 255 67.5 L 250 68 L 250 43 L 225 43 L 225 67.5 L 224.5 68 L 219 68 L 219 44.5 L 218.5 44 L 212 44 L 212 67.5 L 207 68 L 207 61 L 195 61 L 195 50 L 207 50 L 207 43 L 195 43 L 195 36 L 188 36 L 188 67.5 L 183 68 L 183 43 L 173.5 43 L 183 32.5 L 183 8.5 L 182.5 8 L 176 8 L 176 26 L 165 26 L 165 8 L 158 8 L 158 33 L 171.5 33 L 167 38.5 L 167 43 L 158 43 L 158 50 L 175.5 50 L 176 53 L 158 53 L 158 68 L 153 68 L 153 35.5 Q 152.8 34.3 146.5 35 Q 143.3 36.9 145 43 L 127 43 L 127 67.5 L 122 68 L 122 43 L 97 43 L 97 67.5 L 92 68 L 92 43.5 L 91.5 43 L 85 43 L 85 61 L 74 61 L 74 43 L 67 43 L 67 67.5 L 62 68 L 62 43 L 36 43 L 36 68 L 7 68 L 7 56 L 30.5 56 L 31 55.5 L 31 49 L 7.5 49 L 7 44 L 30.5 44 L 31 43.5 L 31 37 L 0.5 37 L 0 33 L 31 33 L 31 1 L 24.5 1 L 24 1.5 L 24 26 L 7 26 L 7 1.5 Q 6.8 0.3 0.5 1 L 0.5 0 Z M 36 8 L 36 33 L 43 33 L 43 15 L 54 15 L 54 33 L 61 33 L 61 8 L 36 8 Z M 67 8 L 67 33 L 68 33 L 74 33 L 74 9 L 74 8 L 67 8 Z M 103 8 L 103 14 L 121 14 L 121 17 L 103 17 L 103 33 L 128 33 L 128 8 L 103 8 Z M 133 8 L 133 33 L 141 33 L 141 15 L 146 15 L 146 21 L 153 21 L 154 20 L 154 8 L 133 8 Z M 212 36 L 212 41 L 219 41 L 219 36 L 212 36 Z " /><path fill="rgb(252,255,79)" stroke="rgb(252,255,79)" stroke-width="1" opacity="1" d="M 110 23 L 120.5 23 L 121 26 L 110.5 26 L 110 23 Z " /><path fill="rgb(252,255,79)" stroke="rgb(252,255,79)" stroke-width="1" opacity="1" d="M 43 50 L 54 50 L 54 61 L 43 61 L 43 50 Z " /><path fill="rgb(252,255,79)" stroke="rgb(252,255,79)" stroke-width="1" opacity="1" d="M 104 50 L 115 50 L 115 68 L 104 68 L 104 50 Z " /><path fill="rgb(252,255,79)" stroke="rgb(252,255,79)" stroke-width="1" opacity="1" d="M 134 50 L 145 50 L 145 61 L 134 61 L 134 50 Z " /><path fill="rgb(252,255,79)" stroke="rgb(252,255,79)" stroke-width="1" opacity="1" d="M 232 50 L 243 50 L 243 61 L 232 61 L 232 50 Z " /><path fill="rgb(252,255,79)" stroke="rgb(252,255,79)" stroke-width="1" opacity="1" d="M 262 50 L 273 50 L 273 68 L 262 68 L 262 50 Z " /><path fill="rgb(252,255,79)" stroke="rgb(252,255,79)" stroke-width="1" opacity="1" d="M 165 59 L 175.5 59 L 176 62 L 165.5 62 L 165 59 Z " /></svg>