<svg version="1.1" id="Layer_1" xmlns="http://www.w3.org/2000/svg" xmlns:xlink="http://www.w3.org/1999/xlink" x="0px" y="0px"
	 width="100%" viewBox="0 0 301 96" enable-background="new 0 0 301 96" xml:space="preserve">
<path fill="#FFFFFF" opacity="1.000000" stroke="none" 
	d="
M300.000000,1.000000 
	C303.074951,0.387869 301.962219,2.723151 301.966156,3.992499 
	C302.017181,20.467243 302.000000,36.942196 302.000000,53.417099 
	C302.000000,67.895042 302.000000,82.372986 302.000000,97.000000 
	C238.979187,97.000000 175.958252,97.000000 112.468666,96.531342 
	C112.000015,71.821899 112.000015,47.581120 112.000015,23.251125 
	C113.231804,23.131298 113.872322,23.014530 114.512848,23.014418 
	C173.778259,23.004009 233.043716,22.978655 292.308929,23.086535 
	C294.712982,23.090912 297.114746,24.358068 300.000000,25.173161 
	C300.000000,16.610039 300.000000,8.805019 300.000000,1.000000 
z"/>
<path fill="#FFFF00" opacity="1.000000" stroke="none" 
	d="
M299.531342,1.000000 
	C300.000000,8.805019 300.000000,16.610039 300.000000,25.173161 
	C297.114746,24.358068 294.712982,23.090912 292.308929,23.086535 
	C233.043716,22.978655 173.778259,23.004009 114.512848,23.014418 
	C113.872322,23.014530 113.231804,23.131298 112.000015,23.251125 
	C112.000015,47.581120 112.000015,71.821899 112.000008,96.531342 
	C75.032005,97.000000 38.064018,97.000000 1.048013,97.000000 
	C1.048013,65.059753 1.048013,33.119415 1.048013,1.000000 
	C100.354156,1.000000 199.708420,1.000000 299.531342,1.000000 
M53.129520,68.968193 
	C45.346035,68.591095 37.562550,68.213997 28.901211,67.794373 
	C28.901211,56.115807 28.901211,44.724506 28.901211,33.426300 
	C25.564415,33.426300 23.132946,33.426300 20.533476,33.426300 
	C20.533476,48.090302 20.533476,62.470417 20.533476,77.431595 
	C35.168407,77.431595 49.496956,77.431595 64.262741,77.431595 
	C64.262741,71.942604 64.262741,66.533768 64.262741,61.285976 
	C76.049431,60.642353 87.401459,60.022461 98.800835,59.399986 
	C98.982193,56.753292 99.135513,54.515675 99.347473,51.422371 
	C87.938705,51.422371 76.549675,51.422371 64.869308,51.422371 
	C64.498520,47.789585 64.210747,44.970158 63.871216,41.643639 
	C76.252388,41.643639 87.828148,41.643639 99.444077,41.643639 
	C99.444077,38.632725 99.444077,36.072601 99.444077,33.162323 
	C84.824699,33.162323 70.539413,33.162323 55.395847,33.347355 
	C55.264141,43.269123 55.180180,53.191959 54.959110,63.111736 
	C54.916573,65.020592 54.336170,66.917450 53.129520,68.968193 
z"/>
<path fill="#080804" opacity="1.000000" stroke="none" 
	d="
M56.254135,33.162323 
	C70.539413,33.162323 84.824699,33.162323 99.444077,33.162323 
	C99.444077,36.072601 99.444077,38.632725 99.444077,41.643639 
	C87.828148,41.643639 76.252388,41.643639 63.871216,41.643639 
	C64.210747,44.970158 64.498520,47.789585 64.869308,51.422371 
	C76.549675,51.422371 87.938705,51.422371 99.347473,51.422371 
	C99.135513,54.515675 98.982193,56.753292 98.800835,59.399986 
	C87.401459,60.022461 76.049431,60.642353 64.262741,61.285976 
	C64.262741,66.533768 64.262741,71.942604 64.262741,77.431595 
	C49.496956,77.431595 35.168407,77.431595 20.533476,77.431595 
	C20.533476,62.470417 20.533476,48.090302 20.533476,33.426300 
	C23.132946,33.426300 25.564415,33.426300 28.901211,33.426300 
	C28.901211,44.724506 28.901211,56.115807 28.901211,67.794373 
	C37.562550,68.213997 45.346035,68.591095 53.998768,68.947754 
	C55.239185,67.484283 55.908867,66.046371 55.933750,64.597382 
	C56.113686,54.120289 56.163269,43.640949 56.254135,33.162323 
z"/>
<path fill="#BFBFBF" opacity="1.000000" stroke="none" 
	d="
M55.824989,33.254837 
	C56.163269,43.640949 56.113686,54.120289 55.933750,64.597382 
	C55.908867,66.046371 55.239185,67.484283 54.435955,68.873581 
	C54.336170,66.917450 54.916573,65.020592 54.959110,63.111736 
	C55.180180,53.191959 55.264141,43.269123 55.824989,33.254837 
z"/>
</svg>