<svg width="610" height="217" viewBox="0 0 610 217" fill="none" xmlns="http://www.w3.org/2000/svg">
  <rect x="0.0666" y="0" width="610" height="139.0" fill="#FFFF00"/>
  <rect x="0.0666" y="0" width="430" height="215.0" fill="#FFFF00"/>
  <mask id="path-3-inside-1_1718_33" fill="white">
    <path fill-rule="evenodd" clip-rule="evenodd" d="M16.0 216.0V170.0V124.0L106.0 124.0V133.0V142.0L70.07 142.0L34.0 142.0L34.01 152.24L34.04 161.0L70.05 161.0L106.0 161.89V170.0V179.0L70.04 179.0L34.04 180.0L34.01 198.0L34.04 216.0H25.09H16.0ZM126.0 216.0L126.0 179.0L126.0 143.0H135.0H144.07V170.0V198.0L179.0 198.0V171.0V143.0H188.0H197.0L197.0 216.0H162.0H126.0ZM216.0 216.0L216.0 179.0L216.0 143.0H251.0H287.0L287.0 216.0H278.0H270.0L270.0 188.0V161.0H269.0H235.0H234.0V188.0L233.0 216.0H224.0H216.0ZM306.0 216.0L306.0 143.0H333.0H360.0V130.0V118.0L378.0 118.0V167.0V216.0H342.0H306.0ZM360.0 198.0V198.0V180.17V161.0H324.0V180.0V198.0V198.0L360.0 198.0ZM516.0 141.0V135.0V129.0L525.14 120.0L534.01 110.38H511.0H488.0V73.07V36.05H506.0V64.08V92.04H524.0H542.0V64.03V36.05H550.0H559.0V73.09V110.38L544.0 126.0L530.0 141.0H523.0H516.0ZM16.01 110.38L16.07 63.08L16.09 17.09H25.03H35.04V54.07V92.01H62.01H89.05V55.09V17.09H98.02H106.0V64.04V110.38H61.09H16.01ZM126.46 110.38L126.0 73.06L126.0 36.09L161.86 36.01L197.0 36.03L198.0 73.08L197.0 110.38H188.0H179.0V82.09V55.03L162.0 55.0L144.07 55.07V83.06V110.38H135.0H126.46ZM216.7 110.38V73.08V38.04H225.0H233.0V74.05V110.38H225.0H216.7ZM252.0 110.38V61.09V12.01H261.0H270.0V24.04V36.06H288.0H306.0V45.03V55.0H288.0H270.0V73.06V92.02H288.0H306.0V101.38V110.38H279.0H252.0ZM325.0 110.38V87.06V65.09H352.0H378.0V60.09V54.0H352.0H325.0V44.03V36.02H361.0H397.33L397.0 73.03L397.0 110.38H361.0H325.0ZM378.0 88.06V81.05H361.0H343.0L343.0 87.03L343.75 93.06H361.0H378.0V88.06ZM415.0 110.38V73.01V36.08H444.0H471.0V54.03V73.02H454.0H453.0L453.0 64L453.0 55.02H443.0H434.0V82.09V110.38H424.0H415.0ZM216.7 27.04V19.07V12.01H225.0H233.0V19.07V27.04H225.0H216.7Z"/>
  </mask>
  <path fill-rule="evenodd" clip-rule="evenodd" d="M16.0 216.0V170.0V124.0L106.0 124.0V133.0V142.0L70.07 142.0L34.0 142.0L34.01 152.24L34.04 161.0L70.05 161.0L106.0 161.89V170.0V179.0L70.04 179.0L34.04 180.0L34.01 198.0L34.04 216.0H25.09H16.0ZM126.0 216.0L126.0 179.0L126.0 143.0H135.0H144.07V170.0V198.0L179.0 198.0V171.0V143.0H188.0H197.0L197.0 216.0H162.0H126.0ZM216.0 216.0L216.0 179.0L216.0 143.0H251.0H287.0L287.0 216.0H278.0H270.0L270.0 188.0V161.0H269.0H235.0H234.0V188.0L233.0 216.0H224.0H216.0ZM306.0 216.0L306.0 143.0H333.0H360.0V130.0V118.0L378.0 118.0V167.0V216.0H342.0H306.0ZM360.0 198.0V198.0V180.17V161.0H324.0V180.0V198.0V198.0L360.0 198.0ZM516.0 141.0V135.0V129.0L525.14 120.0L534.01 110.38H511.0H488.0V73.07V36.05H506.0V64.08V92.04H524.0H542.0V64.03V36.05H550.0H559.0V73.09V110.38L544.0 126.0L530.0 141.0H523.0H516.0ZM16.01 110.38L16.07 63.08L16.09 17.09H25.03H35.04V54.07V92.01H62.01H89.05V55.09V17.09H98.02H106.0V64.04V110.38H61.09H16.01ZM126.46 110.38L126.0 73.06L126.0 36.09L161.86 36.01L197.0 36.03L198.0 73.08L197.0 110.38H188.0H179.0V82.09V55.03L162.0 55.0L144.07 55.07V83.06V110.38H135.0H126.46ZM216.7 110.38V73.08V38.04H225.0H233.0V74.05V110.38H225.0H216.7ZM252.0 110.38V61.09V12.01H261.0H270.0V24.04V36.06H288.0H306.0V45.03V55.0H288.0H270.0V73.06V92.02H288.0H306.0V101.38V110.38H279.0H252.0ZM325.0 110.38V87.06V65.09H352.0H378.0V60.09V54.0H352.0H325.0V44.03V36.02H361.0H397.33L397.0 73.03L397.0 110.38H361.0H325.0ZM378.0 88.06V81.05H361.0H343.0L343.0 87.03L343.75 93.06H361.0H378.0V88.06ZM415.0 110.38V73.01V36.08H444.0H471.0V54.03V73.02H454.0H453.0L453.0 64L453.0 55.02H443.0H434.0V82.09V110.38H424.0H415.0ZM216.7 27.04V19.07V12.01H225.0H233.0V19.07V27.04H225.0H216.7Z" fill="black" stroke="black" stroke-width="8" mask="url(#path-3-inside-1_1718_33)"/>
</svg>
