<?xml version="1.0" standalone="no"?>
<!DOCTYPE svg PUBLIC "-//W3C//DTD SVG 20010904//EN"
 "http://www.w3.org/TR/2001/REC-SVG-20010904/DTD/svg10.dtd">
<svg version="1.0" xmlns="http://www.w3.org/2000/svg"
 width="299.000000pt" height="98.000000pt" viewBox="0 0 299.000000 98.000000"
 preserveAspectRatio="xMidYMid meet">

<g transform="translate(0.000000,98.000000) scale(0.100000,-0.100000)"
fill="#000000" stroke="none">
<path d="M190 440 l0 -220 220 0 219 0 3 83 3 82 170 5 169 5 7 25 c4 14 7 30
8 36 1 8 -54 14 -174 19 -131 5 -175 10 -175 20 0 7 -3 26 -6 44 l-6 31 178 2
179 3 0 40 0 40 -217 3 -218 2 0 -181 0 -181 -127 7 c-71 4 -130 9 -133 12 -3
3 -6 81 -8 174 l-3 169 -45 0 -44 0 0 -220z"/>
</g>
</svg>
