<svg width="295" height="69" viewBox="0 0 295 69" fill="none" xmlns="http://www.w3.org/2000/svg">
<path fill-rule="evenodd" clip-rule="evenodd" d="M197.618 0.5H0.166016V68.5H294.833V35.2556H197.618V0.5Z" fill="#FFFF00"/>
<path d="M30.4623 32.9741H0.166992V2.67886H6.36507V27.0078H24.4959V2.67886H30.4623V32.9741ZM60.977 8.87694V32.9741H55.0106V14.8433H42.8462V32.9741H36.8798V8.87694H60.977ZM73.1668 1.11486V5.80686H67.2004V1.11486H73.1668ZM67.2004 9.22449H73.1668V32.9741H67.2004V9.22449ZM85.329 14.8433V27.0078H97.4934V32.9741H79.3626V0.999007H85.329V8.87694H97.4934V14.8433H85.329ZM127.959 8.81901V32.9162H103.63V18.4347H121.761V14.4958H103.63V8.81901H127.959ZM121.761 27.5291V23.3584H109.828V27.5291H121.761ZM153.007 8.87694V20.8097H146.809V14.8433H140.206V32.9741H134.008V8.87694H153.007ZM182.542 32.9741L172.463 42.9374H167.771V39.0563L174.085 32.9741H158.445V8.87694H164.411V27.0078H176.576V8.87694H182.542V32.9741Z" fill="black"/>
<path d="M6.13336 44.4082V50.6062H30.2306V56.5726H6.13336V68.7371H0.166992V38.4418H30.2306V44.4082H6.13336ZM61.2087 44.6399V68.7371H36.8798V44.6399H61.2087ZM55.0106 50.6062H43.0779V62.7707H55.0106V50.6062ZM91.5239 68.7371H67.4267V44.6399H73.3931V62.7707H85.5575V44.6399H91.5239V68.7371ZM121.731 44.6399V68.7371H115.765V50.6062H103.601V68.7371H97.6342V44.6399H121.731ZM152.284 36.5882V68.7371H127.955V44.6399H146.086V36.5882H152.284ZM146.086 62.7707V50.6062H133.921V62.7707H146.086ZM182.604 44.5819V68.6791H158.275V54.1977H176.406V50.2587H158.275V44.5819H182.604ZM176.406 63.292V59.1214H164.473V63.292H176.406ZM194.619 50.6062V62.7707H206.783V68.7371H188.653V36.7619H194.619V44.6399H206.783V50.6062H194.619ZM218.887 36.8778V41.5698H212.92V36.8778H218.887ZM212.92 44.9874H218.887V68.7371H212.92V44.9874ZM249.411 44.6399V68.7371H225.083V44.6399H249.411ZM243.213 50.6062H231.281V62.7707H243.213V50.6062ZM279.727 44.6399V68.7371H273.76V50.6062H261.596V68.7371H255.629V44.6399H279.727Z" fill="black"/>
</svg>