<svg width="8" height="12" viewBox="0 0 8 12" fill="none" xmlns="http://www.w3.org/2000/svg">
<path d="M3.83519 0.875C1.48109 0.875 0.253418 2.69753 0.253418 4.92506C0.253418 7.15259 3.75925 11.595 3.75925 11.595H3.92378C3.92378 11.595 7.36633 6.87415 7.36633 4.92506C7.36633 2.69753 6.20194 0.875 3.83519 0.875ZM3.83519 10.1269C3.83519 10.1269 3.17705 9.2409 2.53158 8.13979C1.8861 7.03868 1.22796 5.74773 1.22796 4.92506C1.22796 3.30504 2.12657 1.98877 3.83519 1.98877C5.54381 1.98877 6.39179 3.30504 6.39179 4.92506C6.39179 6.30461 3.83519 10.1269 3.83519 10.1269ZM4.79708 4.92506C4.79708 5.46929 4.3541 5.91226 3.80988 5.91226C3.26565 5.91226 2.82267 5.46929 2.82267 4.92506C2.82267 4.38083 3.26565 3.93786 3.80988 3.93786C4.3541 3.93786 4.79708 4.38083 4.79708 4.92506Z" fill="#FFFF00"/>
</svg>
